# Blender 3.3.0
# www.blender.org
mtllib Tierra fertil1.mtl
o Sphere.001
v -2.149206 -0.239892 -4.868900
v -1.354084 -0.045538 -5.388450
v -0.348310 0.358728 -4.544685
v -0.094133 -0.153919 -4.672149
v -0.746118 0.556638 -3.461494
v 1.165593 -0.031865 -4.055502
v 1.131623 0.291468 -3.365649
v 1.258333 -0.019328 -3.121090
v 0.476927 0.461541 -3.203258
v -0.131803 0.276102 -2.488792
v -1.682720 0.178302 -1.388147
v -1.123322 -0.159713 -1.821159
v -1.379433 0.480978 -2.384109
v -2.450423 -0.053376 -0.957910
v -2.804084 0.296113 -1.341165
v -3.218199 -0.035077 -1.462328
v -3.321486 0.425243 -2.388752
v -3.858487 0.156827 -2.942119
v -3.553927 -0.242870 -2.774962
v -3.335684 0.368535 -3.980119
v -2.339588 0.537870 -3.887502
v -3.443285 -0.090586 -4.474192
v -2.513186 0.246919 -4.828826
vn 0.3731 0.3938 -0.8401
vn 0.1063 0.9843 -0.1408
vn 0.9461 0.3086 -0.0980
vn 0.4464 0.2843 0.8485
vn 0.0556 0.9932 0.1024
vn 0.1810 0.9034 0.3887
vn 0.1800 0.9246 0.3358
vn 0.5237 -0.1955 0.8292
vn 0.1079 0.7821 0.6137
vn -0.0288 0.9982 0.0532
vn -0.5089 0.3483 0.7872
vn -0.6962 0.6090 0.3802
vn -0.8159 -0.5013 0.2880
vn -0.1645 0.9858 -0.0337
vn -0.7689 -0.6304 -0.1066
vn -0.8045 0.5122 -0.3007
vn -0.3875 -0.2160 -0.8962
vn -0.1370 0.9532 -0.2694
vn 0.0119 0.8961 -0.4436
vn -0.0109 0.9559 -0.2935
vn 0.0333 0.9853 -0.1678
vn 0.4744 0.4267 -0.7700
vn 0.3451 0.8563 -0.3843
vn 0.2005 0.9597 -0.1969
vn 0.3311 0.8056 0.4912
vn 0.4226 0.6606 0.6205
vn 0.5802 -0.0782 0.8107
vn -0.0287 0.9903 0.1363
vn 0.1122 0.9407 0.3201
vn -0.0271 0.9980 0.0573
vn -0.6412 0.6563 0.3976
vn -0.4233 0.9056 -0.0285
vn -0.4620 0.6976 -0.5477
vt 0.795836 0.343472
vt 0.751954 0.543625
vt 0.660759 0.710870
vt 0.642591 0.405310
vt 0.474797 0.929275
vt 0.565607 0.470177
vt 0.498731 0.650484
vt 0.474411 0.474905
vt 0.471172 0.797056
vt 0.391352 0.655330
vt 0.312060 0.592510
vt 0.345752 0.405860
vt 0.303843 0.823516
vt 0.238070 0.453468
vt 0.203846 0.666970
vt 0.139508 0.469402
vt 0.109747 0.761588
vt 0.996289 0.584928
vt 0.035290 0.570133
vt 0.052408 0.346826
vt 0.992171 0.399333
vt 0.000000 0.784407
vt 0.942053 0.718160
vt 0.877808 0.875529
vt 0.031154 0.911618
vt 0.907746 0.434550
vt 0.835833 0.635807
s 0
usemtl Material.003
f 4/4/1 3/3/1 6/6/1
f 5/5/2 9/9/2 3/3/2
f 6/6/3 7/7/3 8/8/3
f 8/8/4 10/10/4 12/12/4
f 5/5/5 13/13/5 9/9/5
f 9/9/6 13/13/6 10/10/6
f 10/10/7 13/13/7 11/11/7
f 11/11/8 14/14/8 12/12/8
f 11/11/9 15/15/9 14/14/9
f 13/13/10 5/5/10 17/17/10
f 14/14/11 15/15/11 16/16/11
f 16/16/12 17/17/12 18/19/12
f 18/19/13 19/20/13 16/16/13
f 17/17/14 21/25/14 20/22/14
f 18/18/15 22/26/15 19/21/15
f 18/18/16 20/23/16 22/26/16
f 1/1/17 22/26/17 23/27/17 2/2/17
f 21/24/18 23/27/18 20/23/18
f 23/27/19 3/3/19 2/2/19
f 23/27/20 21/24/20 3/3/20
f 21/24/21 5/5/21 3/3/21
f 2/2/22 3/3/22 4/4/22
f 6/6/23 3/3/23 7/7/23
f 7/7/24 3/3/24 9/9/24
f 7/7/25 9/9/25 10/10/25
f 8/8/26 7/7/26 10/10/26
f 12/12/27 10/10/27 11/11/27
f 13/13/28 17/17/28 15/15/28
f 11/11/29 13/13/29 15/15/29
f 5/5/30 21/25/30 17/17/30
f 16/16/31 15/15/31 17/17/31
f 18/19/32 17/17/32 20/22/32
f 22/26/33 20/23/33 23/27/33
