# Blender 3.3.0
# www.blender.org
mtllib Tierra fertil2.mtl
o Sphere.002
v 3.568029 -0.239892 -1.394683
v 4.883567 -0.045538 -2.338329
v 5.889341 0.358728 -1.494564
v 6.143518 -0.153919 -1.622028
v 5.077265 0.556638 0.539949
v 6.971722 -0.031865 -0.014438
v 6.937752 0.291468 0.675415
v 7.064462 -0.019328 0.919974
v 6.283056 0.461541 0.837806
v 5.674326 0.276102 1.552272
v 4.123409 0.178302 2.652917
v 4.682807 -0.159713 2.219905
v 4.426696 0.480978 1.656956
v 3.355706 -0.053376 3.083154
v 3.002046 0.296113 2.699900
v 2.587931 -0.035077 2.578736
v 2.484644 0.425243 1.652312
v 1.935136 0.156827 1.069962
v 2.252203 -0.242870 1.266102
v 2.113959 0.368535 -0.765212
v 3.411551 0.537870 0.026124
v 2.006358 -0.090586 -1.259285
v 2.936546 0.246919 -1.614123
vn 0.7621 0.4846 -0.4294
vn 0.0931 0.9939 -0.0595
vn 0.9461 0.3086 -0.0980
vn 0.4464 0.2843 0.8485
vn 0.0540 0.9936 0.0987
vn 0.1810 0.9034 0.3887
vn 0.1800 0.9246 0.3358
vn 0.5237 -0.1955 0.8292
vn 0.1079 0.7821 0.6137
vn -0.0288 0.9983 0.0509
vn -0.5089 0.3483 0.7872
vn -0.6985 0.6068 0.3794
vn -0.8140 -0.5044 0.2880
vn -0.1271 0.9919 -0.0038
vn -0.7924 -0.6087 0.0404
vn -0.9556 0.2884 -0.0599
vn -0.2567 -0.6538 -0.7118
vn -0.0267 0.9856 -0.1671
vn -0.0177 0.9097 -0.4148
vn -0.0306 0.9857 -0.1660
vn 0.0166 0.9958 -0.0902
vn 0.4744 0.4267 -0.7700
vn 0.6540 0.6968 -0.2944
vn 0.2315 0.9694 -0.0818
vn 0.3311 0.8056 0.4912
vn 0.4226 0.6606 0.6205
vn 0.5802 -0.0782 0.8107
vn -0.0287 0.9903 0.1363
vn 0.1122 0.9407 0.3201
vn -0.0277 0.9982 0.0533
vn -0.6412 0.6563 0.3976
vn -0.4836 0.8736 0.0537
vn -0.4620 0.6976 -0.5476
vt 0.795836 0.343472
vt 0.751954 0.543625
vt 0.660759 0.710870
vt 0.642591 0.405310
vt 0.474797 0.929275
vt 0.565607 0.470177
vt 0.498731 0.650484
vt 0.474411 0.474905
vt 0.471172 0.797056
vt 0.391352 0.655330
vt 0.312060 0.592510
vt 0.345752 0.405860
vt 0.303843 0.823516
vt 0.238070 0.453468
vt 0.203846 0.666970
vt 0.139508 0.469402
vt 0.109747 0.761588
vt 0.996289 0.584928
vt 0.035290 0.570133
vt 0.052408 0.346826
vt 0.992171 0.399333
vt 0.000000 0.784407
vt 0.942053 0.718160
vt 0.877808 0.875529
vt 0.031154 0.911618
vt 0.907746 0.434550
vt 0.835833 0.635807
s 0
usemtl Material.004
f 4/4/1 3/3/1 6/6/1
f 5/5/2 9/9/2 3/3/2
f 6/6/3 7/7/3 8/8/3
f 8/8/4 10/10/4 12/12/4
f 5/5/5 13/13/5 9/9/5
f 9/9/6 13/13/6 10/10/6
f 10/10/7 13/13/7 11/11/7
f 11/11/8 14/14/8 12/12/8
f 11/11/9 15/15/9 14/14/9
f 13/13/10 5/5/10 17/17/10
f 14/14/11 15/15/11 16/16/11
f 16/16/12 17/17/12 18/19/12
f 18/19/13 19/20/13 16/16/13
f 17/17/14 21/25/14 20/22/14
f 18/18/15 22/26/15 19/21/15
f 18/18/16 20/23/16 22/26/16
f 1/1/17 22/26/17 23/27/17 2/2/17
f 21/24/18 23/27/18 20/23/18
f 23/27/19 3/3/19 2/2/19
f 23/27/20 21/24/20 3/3/20
f 21/24/21 5/5/21 3/3/21
f 2/2/22 3/3/22 4/4/22
f 6/6/23 3/3/23 7/7/23
f 7/7/24 3/3/24 9/9/24
f 7/7/25 9/9/25 10/10/25
f 8/8/26 7/7/26 10/10/26
f 12/12/27 10/10/27 11/11/27
f 13/13/28 17/17/28 15/15/28
f 11/11/29 13/13/29 15/15/29
f 5/5/30 21/25/30 17/17/30
f 16/16/31 15/15/31 17/17/31
f 18/19/32 17/17/32 20/22/32
f 22/26/33 20/23/33 23/27/33
