# Blender 3.3.0
# www.blender.org
mtllib terrain02.mtl
o Plane
v -25.000000 0.000000 -25.000000
v -0.371848 0.798999 12.885811
v -12.435295 0.413928 0.111749
v -12.105095 1.380266 12.677565
v 12.172888 0.382470 -12.500089
v -24.996582 -0.063999 24.999870
v 24.999817 -0.009280 -18.665222
v -24.999796 -0.001712 -5.894454
v -0.170015 0.571284 -20.156136
v 19.162952 0.004897 -25.000443
v -5.853874 1.822177 0.493969
v 12.665128 0.463706 5.791716
v 6.220927 -0.108523 12.359580
v 18.941277 1.040482 12.635703
v -12.046785 0.704950 6.264228
v -12.623483 0.722254 18.791775
v -5.731612 0.658012 12.635792
v -12.827112 0.382470 -18.750088
v -12.646371 1.269172 -6.058415
v -19.145956 0.904006 -12.280782
v -5.194571 0.984743 -14.838659
v 2.043219 0.393922 -4.138151
v 6.250000 0.000000 -18.750000
v -17.836189 1.117582 -8.388763
v -19.223076 0.981396 -20.676502
v -5.129277 0.232587 19.268599
v 5.922888 0.382470 18.749912
v 18.333607 0.397540 -5.499924
v -5.467079 1.085770 6.185741
v -6.250000 0.000000 -18.750000
v 25.000000 0.000000 -25.000000
v 0.512959 0.099605 25.007895
v -1.278185 0.742293 4.361207
v 0.702236 1.473657 0.231079
v -18.840704 0.030145 -25.001650
v -13.920806 0.020307 25.002995
v 0.645552 0.732573 -9.695236
v -0.029073 -0.108523 15.484580
v 12.855305 0.557627 -0.035491
v 10.110629 1.121137 15.810163
v 2.753152 0.798999 12.885811
v 13.805994 1.101960 12.760033
v -12.373898 1.087421 3.139140
v -7.606615 1.246474 14.740153
v -13.404055 1.229706 -10.296459
v -21.607306 -0.008647 -14.335354
v 11.049513 -0.034656 -21.896555
v 4.158253 0.791913 -14.446715
v 25.000711 0.013133 -3.591227
v -1.957762 0.682639 9.222239
v 8.611120 -0.339115 -2.683581
v 2.972904 -0.067050 24.991858
v 24.998903 -0.012778 24.999447
v -1.125299 0.646060 -6.516470
v 0.518388 0.658012 22.010792
v -3.247262 1.164165 0.358177
v 11.014946 0.316155 22.573545
v 9.049538 0.306693 11.452331
v -11.777983 0.997796 9.552653
v -12.623483 0.722254 21.916775
v -15.748483 0.722254 12.541773
v -3.125000 0.000000 12.500000
v -12.279489 0.256643 -3.293053
v -2.838368 0.748968 -16.387873
v 12.798038 -0.490993 -3.265331
v 9.004420 0.787193 -12.125128
v 18.352913 0.387588 -12.332591
v 14.601156 0.306635 -5.898889
v 21.850349 0.002731 -6.473201
v 6.145513 0.357129 -12.275957
v 9.047888 0.382470 -6.250088
v 8.350066 -0.006333 -24.999512
v 5.879420 0.787193 -15.250128
v 3.643388 0.658012 -18.614208
v -6.074224 0.673172 -2.907154
v -3.247262 1.164165 -5.891823
v -21.728037 -0.013395 -6.855001
v -18.818844 0.521536 -15.405693
v -16.327721 0.522012 -20.502031
v -3.877578 -0.019646 24.998192
v -2.635685 0.549489 18.745373
v -19.472980 1.033533 15.816123
v -22.019882 0.406430 18.373026
v -18.354546 0.477687 19.078979
v -18.998346 1.488085 -0.321467
v -19.238865 1.288215 7.486053
v -15.486959 1.855226 6.540947
v 18.933100 0.374714 15.887752
v 14.160048 0.473235 18.414206
v 21.611004 0.388422 12.591963
v 5.729995 -0.161709 15.474112
v 5.922888 0.382470 21.874912
v 2.824441 0.359908 18.232807
v 9.375000 0.000000 18.750000
v 6.028645 0.743144 3.735346
v 5.649669 0.785212 9.634340
v 1.690280 1.193955 6.925648
v 9.498445 0.424272 4.982300
v 18.422888 0.382470 9.374911
v -6.577112 0.382470 9.374911
v -9.248898 1.087421 6.264140
v -2.949224 0.673172 6.467846
v -9.421721 1.251556 -18.215313
v -2.656799 0.977130 -18.672857
v 16.564667 0.421889 -21.811913
v 19.517141 0.388994 -17.545532
v 15.026570 0.382470 -18.918697
v -9.936636 -0.022076 -15.596334
v -9.598555 -0.026450 -22.091316
v -9.023562 1.784989 9.927526
v -9.373498 1.236906 0.591200
v 15.329741 -0.009431 7.786166
v 15.688478 0.015068 0.457473
v 19.286007 0.422255 21.227331
v 14.851498 -0.039639 24.996136
v -15.748483 0.722254 9.416773
v -22.181467 0.385371 9.083532
v -16.198893 -0.004686 22.097569
v -9.538836 0.674519 19.367449
v -8.587355 1.309281 16.102425
v -15.625000 0.000000 -15.625000
v -21.875000 0.000000 -21.875000
v -14.667202 0.882608 -3.709918
v -22.202112 0.382470 -3.125088
v -3.247262 1.164165 -2.766823
v -9.380581 0.606961 -3.120226
v -8.613512 0.605958 -12.030655
v 9.690972 0.407384 -17.172579
v 9.673038 -0.490993 -3.265331
v 15.297888 0.382470 -3.125088
v 14.028449 -0.206584 -9.594459
v 9.047888 0.382470 -9.375089
v -4.316810 0.802780 -7.882930
v -2.933724 1.040482 15.760703
v -15.952112 0.382470 15.624911
v -15.486959 1.855226 3.415946
v -3.783370 0.021178 -25.001905
vn -0.0729 0.9875 0.1399
vn -0.1582 0.9842 -0.0797
vn -0.1217 0.9806 -0.1536
vn 0.2156 0.9522 -0.2162
vn 0.0487 0.9896 -0.1354
vn 0.0126 0.9999 -0.0041
vn -0.0220 0.9995 -0.0218
vn 0.1425 0.9875 0.0674
vn 0.2372 0.9715 -0.0000
vn -0.0570 0.9787 0.1971
vn -0.0347 0.9961 0.0813
vn 0.0667 0.9977 0.0140
vn 0.2609 0.9636 0.0576
vn 0.0006 0.9998 0.0176
vn -0.0019 1.0000 -0.0015
vn -0.0008 1.0000 -0.0004
vn -0.0048 0.9999 0.0111
vn -0.2840 0.8830 0.3736
vn 0.0574 0.9794 -0.1938
vn -0.1912 0.9763 -0.1010
vn -0.2235 0.9524 -0.2073
vn 0.0010 0.9997 0.0263
vn -0.0029 1.0000 0.0010
vn 0.2275 0.9469 -0.2272
vn -0.1523 0.9883 -0.0041
vn -0.0369 0.9472 0.3184
vn -0.0231 0.9830 0.1821
vn -0.0090 0.9872 0.1592
vn 0.0676 0.9808 0.1829
vn 0.0088 0.9842 -0.1769
vn 0.0204 0.9861 -0.1650
vn 0.0154 0.9998 -0.0099
vn -0.0076 1.0000 -0.0026
vn -0.1904 0.9715 0.1409
vn -0.1517 0.9884 0.0020
vn 0.0155 0.9999 -0.0000
vn -0.0194 0.9825 0.1854
vn -0.3524 0.9357 0.0136
vn 0.1162 0.9928 -0.0289
vn -0.3265 0.9452 0.0003
vn 0.0036 1.0000 0.0001
vn -0.1330 0.9249 0.3563
vn -0.0422 0.9991 -0.0037
vn -0.0142 0.9752 -0.2208
vn 0.0133 0.9997 0.0223
vn 0.1510 0.9695 -0.1932
vn 0.0416 0.9979 0.0503
vn 0.0689 0.9932 0.0943
vn -0.0063 0.9793 0.2025
vn 0.1113 0.9938 -0.0011
vn -0.0285 0.9945 -0.1012
vn 0.1652 0.9662 -0.1979
vn 0.1863 0.9771 0.1026
vn 0.2357 0.9520 0.1955
vn -0.0149 0.9999 -0.0079
vn -0.0689 0.9378 0.3404
vn 0.1312 0.9849 -0.1133
vn 0.0651 0.9849 -0.1603
vn 0.0023 0.9934 -0.1145
vn 0.0623 0.9977 -0.0283
vn 0.1293 0.9831 0.1293
vn -0.0031 0.9587 0.2845
vn 0.1246 0.9848 -0.1207
vn -0.3073 0.9515 0.0147
vn -0.0806 0.9961 0.0362
vn -0.0212 0.9996 0.0185
vn -0.2826 0.9539 -0.1012
vn -0.0052 0.9931 0.1169
vn 0.1887 0.9300 0.3155
vn -0.2452 0.9421 -0.2289
vn -0.1497 0.9839 0.0973
vn -0.0181 0.9997 -0.0158
vn 0.1002 0.9947 0.0219
vn -0.0976 0.9889 0.1119
vn 0.1187 0.9839 0.1339
vn -0.0589 0.9973 0.0440
vn 0.0166 0.9795 0.2006
vn 0.0466 0.9973 0.0574
vn -0.1010 0.9941 -0.0389
vn 0.1917 0.9775 -0.0877
vn 0.1030 0.9947 -0.0005
vn 0.2227 0.9744 0.0296
vn -0.1266 0.9920 0.0018
vn -0.1588 0.9777 0.1373
vn 0.0297 0.9987 0.0417
vn -0.1152 0.9926 0.0380
vn 0.0772 0.9968 0.0185
vn -0.1486 0.9793 0.1375
vn -0.0283 0.9977 -0.0612
vn -0.0014 1.0000 -0.0001
vn -0.1472 0.9841 -0.0994
vn -0.0820 0.9962 -0.0300
vn 0.0937 0.9904 -0.1017
vn -0.1596 0.9835 0.0855
vn -0.1915 0.9347 -0.2995
vn 0.0135 0.9931 0.1162
vn 0.0519 0.9966 0.0646
vn -0.1965 0.9726 -0.1246
vn -0.2897 0.9524 0.0952
vn -0.1008 0.9943 0.0334
vn 0.3783 0.9225 -0.0760
vn -0.0635 0.9960 0.0635
vn -0.0018 0.9776 -0.2103
vn 0.1143 0.9934 0.0009
vn 0.1746 0.9845 0.0161
vn 0.1094 0.9939 0.0134
vn -0.0088 0.9998 -0.0205
vn -0.0941 0.9651 -0.2445
vn 0.0572 0.9966 -0.0588
vn 0.2801 0.9280 0.2456
vn 0.0154 0.9833 0.1815
vn -0.0137 0.9873 -0.1581
vn 0.0060 0.9420 0.3354
vn 0.2189 0.9741 0.0567
vn -0.0023 0.9901 0.1406
vn 0.1252 0.9918 0.0246
vn -0.0027 0.9929 0.1186
vn 0.0465 0.9963 0.0728
vn 0.0831 0.9921 0.0944
vn 0.0827 0.9896 0.1176
vn -0.0494 0.9308 0.3622
vn -0.1191 0.9906 -0.0669
vn -0.2602 0.9655 0.0117
vn -0.1368 0.9906 0.0001
vn 0.0341 0.9894 0.1414
vn -0.2855 0.9583 0.0157
vn 0.0195 0.9966 0.0795
vn -0.0549 0.9810 0.1859
vn -0.0272 0.9984 0.0499
vn -0.1607 0.9704 0.1805
vn 0.1396 0.9739 0.1787
vn 0.0382 0.9991 -0.0185
vn 0.1591 0.9842 0.0779
vn 0.1527 0.9827 -0.1049
vn -0.0469 0.9774 -0.2060
vn -0.1992 0.9796 -0.0275
vn -0.2374 0.9609 -0.1425
vn -0.0049 1.0000 0.0049
vn -0.0012 1.0000 0.0012
vn 0.1597 0.9868 0.0278
vn 0.2588 0.9654 -0.0328
vn -0.0285 0.9936 -0.1091
vn -0.1360 0.9907 -0.0000
vn 0.0005 1.0000 0.0006
vn 0.0304 0.9842 -0.1743
vn -0.0171 0.9966 -0.0804
vn -0.1801 0.9773 -0.1119
vn -0.0882 0.9670 -0.2390
vn 0.1581 0.9874 -0.0029
vn -0.0060 1.0000 0.0060
vn 0.0457 0.9988 -0.0190
vn 0.0512 0.9957 -0.0773
vn 0.0892 0.9741 0.2080
vn 0.0666 0.9883 0.1370
vn 0.0148 0.9956 -0.0927
vn 0.2480 0.9653 0.0823
vn -0.0074 0.9532 -0.3022
vn -0.0503 0.9941 -0.0961
vn 0.2074 0.9626 -0.1742
vn 0.0488 0.9976 0.0485
vn 0.0847 0.9918 -0.0962
vn 0.0605 0.9981 -0.0105
vn -0.3322 0.9414 0.0577
vn -0.0974 0.9943 -0.0443
vn -0.0011 1.0000 -0.0037
vn -0.1547 0.9771 0.1462
vn 0.0638 0.9947 -0.0802
vn -0.0246 0.9985 -0.0486
vn 0.0677 0.9967 -0.0438
vn 0.1076 0.9941 0.0124
vn 0.1437 0.9586 -0.2460
vn -0.0028 0.9986 0.0521
vn -0.1650 0.9861 0.0203
vn 0.0679 0.9961 -0.0563
vn -0.0295 0.9779 0.2068
vn 0.1503 0.9855 -0.0787
vn -0.0889 0.9960 -0.0134
vn 0.1868 0.9751 0.1198
vn -0.1333 0.9910 0.0152
vn 0.1726 0.9513 -0.2556
vn 0.2840 0.9578 0.0437
vn -0.2346 0.9687 -0.0808
vn -0.1173 0.9897 0.0816
vn 0.1670 0.9830 0.0768
vn -0.0164 0.9997 0.0156
vn 0.0713 0.9960 -0.0547
vn 0.1440 0.9787 0.1463
vn -0.1064 0.9930 -0.0518
vn -0.2591 0.9608 -0.0990
vn 0.0008 1.0000 0.0015
vt 0.000000 1.000000
vt 0.500000 0.250000
vt 0.245877 0.500000
vt 0.250000 0.250000
vt 0.750000 0.750000
vt 0.000000 0.000006
vt 0.999047 0.874141
vt 0.000000 0.617889
vt 0.500000 0.905823
vt 0.891960 1.005810
vt 0.375000 0.500000
vt 0.750000 0.375000
vt 0.625000 0.250000
vt 0.875000 0.250000
vt 0.250000 0.375000
vt 0.250000 0.125000
vt 0.375000 0.250000
vt 0.250000 0.875000
vt 0.250000 0.625000
vt 0.125000 0.750000
vt 0.375000 0.806190
vt 0.565091 0.577175
vt 0.625000 0.875000
vt 0.125984 0.679339
vt 0.125000 0.917914
vt 0.394115 0.105885
vt 0.625000 0.125000
vt 0.875000 0.609996
vt 0.375000 0.383449
vt 0.375000 0.875000
vt 1.000000 1.000000
vt 0.510259 0.000000
vt 0.471851 0.437500
vt 0.518720 0.500000
vt 0.123188 1.000000
vt 0.221584 0.000000
vt 0.500000 0.700851
vt 0.500000 0.187500
vt 0.750000 0.494353
vt 0.698387 0.187500
vt 0.562500 0.250000
vt 0.772294 0.250000
vt 0.250000 0.437500
vt 0.348361 0.214139
vt 0.236783 0.695384
vt 0.062500 0.786898
vt 0.720990 0.937500
vt 0.562500 0.796432
vt 0.997139 0.582380
vt 0.468282 0.312500
vt 0.654797 0.532193
vt 0.562500 0.000163
vt 0.999999 -0.000006
vt 0.500000 0.625491
vt 0.500000 0.062500
vt 0.437500 0.500000
vt 0.726841 0.062500
vt 0.687500 0.270952
vt 0.250000 0.312500
vt 0.250000 0.062500
vt 0.187500 0.250000
vt 0.437500 0.250000
vt 0.250000 0.562500
vt 0.437500 0.829711
vt 0.750000 0.562500
vt 0.687500 0.750000
vt 0.868495 0.731335
vt 0.798565 0.625000
vt 0.937500 0.629464
vt 0.625000 0.750126
vt 0.687500 0.625000
vt 0.680143 0.973540
vt 0.625000 0.812500
vt 0.562500 0.875000
vt 0.375000 0.562500
vt 0.437500 0.625000
vt 0.062500 0.637100
vt 0.125000 0.812500
vt 0.187500 0.910039
vt 0.399056 -0.009669
vt 0.437500 0.125000
vt 0.125000 0.189212
vt 0.062500 0.132538
vt 0.140241 0.125000
vt 0.125000 0.511367
vt 0.125000 0.354648
vt 0.187500 0.375000
vt 0.888343 0.187500
vt 0.789743 0.125000
vt 0.937500 0.248159
vt 0.615181 0.187500
vt 0.625000 0.062500
vt 0.563232 0.125000
vt 0.687500 0.125000
vt 0.609904 0.418989
vt 0.620430 0.312500
vt 0.537798 0.375000
vt 0.687500 0.400352
vt 0.875000 0.312500
vt 0.375000 0.312500
vt 0.312500 0.375000
vt 0.437500 0.375000
vt 0.312500 0.875000
vt 0.439684 0.872816
vt 0.837836 0.937500
vt 0.875000 0.850909
vt 0.798391 0.870659
vt 0.301569 0.812500
vt 0.308029 0.937500
vt 0.312500 0.312500
vt 0.312500 0.495340
vt 0.800765 0.332303
vt 0.812500 0.490851
vt 0.892742 0.067688
vt 0.805032 -0.000889
vt 0.187500 0.312500
vt 0.062500 0.318328
vt 0.176022 0.062500
vt 0.312500 0.113362
vt 0.318988 0.187500
vt 0.187500 0.812500
vt 0.062500 0.937500
vt 0.187500 0.576597
vt 0.062500 0.562500
vt 0.437500 0.562500
vt 0.312500 0.566761
vt 0.312500 0.741691
vt 0.687500 0.843450
vt 0.687500 0.562500
vt 0.812500 0.562500
vt 0.781150 0.687500
vt 0.687500 0.687500
vt 0.408450 0.662024
vt 0.437500 0.187500
vt 0.187500 0.187500
vt 0.187500 0.437500
vt 0.399729 1.000777
s 0
usemtl Material.002
f 33/33/1 34/34/1 56/56/1
f 39/39/2 51/51/2 98/98/2
f 40/40/3 42/42/3 58/58/3
f 43/43/4 3/3/4 136/136/4
f 109/109/5 35/35/5 79/79/5
f 133/133/6 37/37/6 64/64/6
f 28/28/7 68/68/7 130/130/7
f 70/70/8 48/48/8 22/22/8
f 54/54/9 76/76/9 125/125/9
f 118/118/10 84/84/10 83/83/10
f 115/115/11 114/114/11 89/89/11
f 114/114/12 53/53/12 90/90/12
f 91/91/13 13/13/13 41/41/13
f 137/137/14 35/35/14 109/109/14
f 49/49/15 7/7/15 69/69/15
f 67/67/16 107/107/16 5/5/16
f 106/106/17 105/105/17 107/107/17
f 108/108/18 103/103/18 18/18/18
f 127/127/19 108/108/19 45/45/19
f 127/127/20 21/21/20 108/108/20
f 43/43/21 111/111/21 3/3/21
f 101/101/22 29/29/22 111/111/22
f 90/90/23 28/28/23 99/99/23
f 14/14/24 90/90/24 99/99/24
f 112/112/25 28/28/25 113/113/25
f 13/13/26 58/58/26 96/96/26
f 96/96/27 97/97/27 50/50/27
f 115/115/28 57/57/28 92/92/28
f 52/52/29 55/55/29 32/32/29
f 93/93/30 91/91/30 38/38/30
f 27/27/31 91/91/31 93/93/31
f 114/114/32 88/88/32 89/89/32
f 36/36/33 118/118/33 6/6/33
f 36/36/34 60/60/34 118/118/34
f 83/83/35 8/8/35 6/6/35
f 119/119/36 16/16/36 60/60/36
f 119/119/37 120/120/37 16/16/37
f 46/46/38 25/25/38 122/122/38
f 123/123/39 24/24/39 85/85/39
f 117/117/40 85/85/40 124/124/40
f 77/77/41 1/1/41 8/8/41
f 63/63/42 126/126/42 19/19/42
f 126/126/43 133/133/43 127/127/43
f 128/128/44 23/23/44 73/73/44
f 37/37/45 48/48/45 104/104/45
f 51/51/46 22/22/46 34/34/46
f 22/22/47 37/37/47 54/54/47
f 113/113/48 28/28/48 130/130/48
f 131/131/49 67/67/49 5/5/49
f 28/28/50 69/69/50 67/67/50
f 107/107/51 47/47/51 128/128/51
f 79/79/52 35/35/52 25/25/52
f 84/84/53 135/135/53 82/82/53
f 90/90/54 14/14/54 88/88/54
f 90/90/55 88/88/55 114/114/55
f 89/89/56 40/40/56 94/94/56
f 98/98/57 51/51/57 95/95/57
f 104/104/58 9/9/58 137/137/58
f 9/9/59 72/72/59 137/137/59
f 2/2/60 62/62/60 134/134/60 38/38/60
f 66/66/61 132/132/61 131/131/61 5/5/61
f 68/68/62 71/71/62 129/129/62 65/65/62
f 74/74/63 48/48/63 73/73/63 23/23/63
f 20/20/64 46/46/64 77/77/64 24/24/64
f 133/133/65 21/21/65 127/127/65
f 75/75/66 133/133/66 126/126/66
f 24/24/67 77/77/67 124/124/67 85/85/67
f 18/18/68 79/79/68 121/121/68 108/108/68
f 123/123/69 63/63/69 19/19/69
f 122/122/70 25/25/70 35/35/70
f 46/46/71 78/78/71 25/25/71
f 81/81/72 26/26/72 55/55/72 93/93/72
f 80/80/73 26/26/73 119/119/73
f 16/16/74 84/84/74 118/118/74 60/60/74
f 87/87/75 116/116/75 59/59/75 15/15/75
f 27/27/76 93/93/76 52/52/76 92/92/76
f 88/88/77 14/14/77 42/42/77
f 98/98/78 58/58/78 112/112/78 12/12/78
f 57/57/79 89/89/79 94/94/79
f 95/95/80 51/51/80 34/34/80
f 96/96/81 95/95/81 97/97/81
f 101/101/82 110/110/82 100/100/82 29/29/82
f 99/99/83 28/28/83 112/112/83
f 29/29/84 11/11/84 111/111/84
f 30/30/85 103/103/85 108/108/85 21/21/85
f 50/50/86 97/97/86 102/102/86
f 7/7/87 106/106/87 67/67/87 69/69/87
f 61/61/88 135/135/88 120/120/88 4/4/88
f 72/72/89 47/47/89 105/105/89 10/10/89
f 67/67/90 106/106/90 107/107/90
f 104/104/91 30/30/91 21/21/91 64/64/91
f 107/107/92 105/105/92 47/47/92
f 109/109/93 103/103/93 30/30/93 137/137/93
f 37/37/94 104/104/94 64/64/94
f 18/18/95 103/103/95 109/109/95
f 29/29/96 100/100/96 50/50/96 102/102/96
f 50/50/97 100/100/97 17/17/97 62/62/97
f 101/101/98 15/15/98 59/59/98 110/110/98
f 62/62/99 2/2/99 50/50/99
f 110/110/100 59/59/100 4/4/100 44/44/100
f 100/100/101 110/110/101 44/44/101 17/17/101
f 111/111/102 43/43/102 15/15/102 101/101/102
f 99/99/103 112/112/103 42/42/103 14/14/103
f 90/90/104 53/53/104 49/49/104
f 113/113/105 39/39/105 12/12/105 112/112/105
f 95/95/106 96/96/106 58/58/106 98/98/106
f 50/50/107 2/2/107 41/41/107 96/96/107
f 58/58/108 42/42/108 112/112/108
f 27/27/109 92/92/109 57/57/109 94/94/109
f 41/41/110 13/13/110 96/96/110
f 33/33/111 95/95/111 34/34/111
f 97/97/112 95/95/112 33/33/112
f 41/41/113 2/2/113 38/38/113 91/91/113
f 55/55/114 52/52/114 93/93/114
f 52/52/115 115/115/115 92/92/115
f 86/86/116 82/82/116 61/61/116 116/116/116
f 115/115/117 53/53/117 114/114/117
f 57/57/118 115/115/118 89/89/118
f 40/40/119 88/88/119 42/42/119
f 89/89/120 88/88/120 40/40/120
f 116/116/121 87/87/121 86/86/121
f 116/116/122 61/61/122 4/4/122 59/59/122
f 86/86/123 117/117/123 83/83/123 82/82/123
f 83/83/124 117/117/124 8/8/124
f 119/119/125 60/60/125 36/36/125 80/80/125
f 117/117/126 86/86/126 85/85/126
f 6/6/127 118/118/127 83/83/127
f 83/83/128 84/84/128 82/82/128
f 80/80/129 32/32/129 26/26/129
f 32/32/130 55/55/130 26/26/130
f 120/120/131 119/119/131 26/26/131 44/44/131
f 120/120/132 44/44/132 4/4/132
f 79/79/133 25/25/133 78/78/133 121/121/133
f 78/78/134 20/20/134 24/24/134 121/121/134
f 121/121/135 24/24/135 45/45/135 108/108/135
f 76/76/136 133/133/136 75/75/136 125/125/136
f 46/46/137 20/20/137 78/78/137
f 122/122/138 35/35/138 1/1/138
f 46/46/139 122/122/139 1/1/139
f 3/3/140 123/123/140 85/85/140
f 3/3/141 63/63/141 123/123/141
f 124/124/142 77/77/142 8/8/142
f 117/117/143 124/124/143 8/8/143
f 77/77/144 46/46/144 1/1/144
f 125/125/145 75/75/145 11/11/145 56/56/145
f 54/54/146 125/125/146 56/56/146 34/34/146
f 126/126/147 63/63/147 3/3/147 111/111/147
f 75/75/148 126/126/148 111/111/148 11/11/148
f 127/127/149 45/45/149 19/19/149 126/126/149
f 128/128/150 73/73/150 70/70/150 66/66/150
f 128/128/151 66/66/151 5/5/151 107/107/151
f 9/9/152 104/104/152 48/48/152 74/74/152
f 71/71/153 22/22/153 51/51/153 129/129/153
f 48/48/154 70/70/154 73/73/154
f 9/9/155 74/74/155 72/72/155
f 74/74/156 23/23/156 72/72/156
f 129/129/157 51/51/157 39/39/157 65/65/157
f 130/130/158 65/65/158 39/39/158 113/113/158
f 34/34/159 22/22/159 54/54/159
f 37/37/160 22/22/160 48/48/160
f 49/49/161 69/69/161 28/28/161
f 90/90/162 49/49/162 28/28/162
f 65/65/163 130/130/163 68/68/163
f 131/131/164 68/68/164 28/28/164 67/67/164
f 70/70/165 22/22/165 71/71/165 132/132/165
f 132/132/166 66/66/166 70/70/166
f 132/132/167 71/71/167 68/68/167 131/131/167
f 72/72/168 23/23/168 128/128/168 47/47/168
f 37/37/169 133/133/169 76/76/169 54/54/169
f 133/133/170 64/64/170 21/21/170
f 17/17/171 44/44/171 134/134/171 62/62/171
f 24/24/172 123/123/172 45/45/172
f 123/123/173 19/19/173 45/45/173
f 18/18/174 109/109/174 79/79/174
f 44/44/175 26/26/175 81/81/175 134/134/175
f 38/38/176 134/134/176 81/81/176 93/93/176
f 135/135/177 84/84/177 16/16/177 120/120/177
f 135/135/178 61/61/178 82/82/178
f 136/136/179 85/85/179 86/86/179 87/87/179
f 136/136/180 3/3/180 85/85/180
f 136/136/181 87/87/181 15/15/181 43/43/181
f 58/58/182 13/13/182 91/91/182 40/40/182
f 91/91/183 27/27/183 94/94/183 40/40/183
f 11/11/184 29/29/184 33/33/184 56/56/184
f 12/12/185 39/39/185 98/98/185
f 105/105/186 106/106/186 7/7/186 10/10/186
f 29/29/187 102/102/187 33/33/187
f 102/102/188 97/97/188 33/33/188
f 30/30/189 104/104/189 137/137/189
f 7/7/190 31/31/190 10/10/190
