# Blender 3.3.0
# www.blender.org
mtllib Terrain01.mtl
o Plane
v -24.499962 0.046299 4.035342
v -8.931919 0.082005 26.180424
v -11.951412 0.610539 -1.191371
v 12.975227 0.608238 1.477490
v 13.027175 0.592994 13.936375
v -12.024773 0.608238 -11.022510
v 13.702285 0.051078 26.177019
v 7.792945 0.032404 -23.823936
v 1.516893 0.608238 -17.272511
v 0.234137 0.905930 7.820895
v 6.168200 0.992990 0.192396
v -24.498087 0.028182 19.623686
v 0.475227 0.608238 -4.772510
v 0.372503 0.684681 19.797159
v 19.244757 0.610194 -0.390922
v 12.046333 0.413699 7.833837
v 12.767785 0.624002 20.208714
v 18.981119 0.538477 14.448052
v -14.262518 0.011173 7.728753
v -12.127497 0.684681 19.797159
v -12.108066 0.817409 -4.669398
v -6.307795 0.584126 -13.774727
v 12.975227 0.608238 -17.272511
v 12.975227 0.608238 -4.772510
v 18.352018 0.029282 -11.184126
v 6.575243 0.328591 -4.975703
v -18.248720 0.032404 -17.573936
v -6.357653 0.695430 20.132610
v -18.377497 0.684681 19.797159
v -18.366871 0.053995 6.531520
v 6.622503 0.684681 19.797159
v 6.356405 1.239585 7.863922
v -6.002883 0.549035 5.505554
v -5.774773 0.608238 -17.272511
v -24.498720 0.032404 26.176064
v 25.501310 0.028695 26.176029
v -0.612993 0.767186 2.918321
v -21.274277 0.039857 0.814296
v 0.368415 0.617605 1.624833
v 15.800813 0.038815 -23.824297
v 0.451349 -0.057629 15.677158
v -8.899773 0.608238 1.477490
v 10.492012 -0.052240 4.344173
v 12.846451 1.260515 16.973585
v 3.600227 0.608238 13.977490
v -12.024773 0.608238 4.602490
v -21.063944 0.682205 9.938532
v -8.862179 0.054709 -17.756735
v -12.005810 0.189114 -8.116904
v -21.179213 0.038242 -14.802887
v -8.347770 0.493640 -11.972311
v 11.446254 0.104749 -19.623537
v 12.721258 0.619886 -7.721498
v 1.911057 0.108594 -11.293535
v -15.989353 0.059139 -23.824995
v 0.475227 0.608238 -14.147510
v -15.249902 0.018624 0.980016
v 9.876280 0.032404 1.176064
v -2.980673 0.042775 -23.824373
v 25.499807 0.009003 -23.821579
v 0.501280 0.032404 -1.948936
v -0.000122 0.028823 22.892899
v 13.001280 0.032404 10.551064
v 12.975227 0.608238 23.352489
v 22.295578 -0.023856 10.983658
v -12.798500 0.081598 22.652744
v -15.123720 0.032404 13.676064
v -3.028320 0.614203 13.902425
v -12.030549 0.605270 -16.714085
v 19.225227 0.608238 -7.897510
v 16.209993 0.056899 -8.355907
v 1.034072 0.642283 -7.807582
v 3.626280 0.032404 -5.073936
v 9.884861 -0.088586 -5.021792
v 6.725227 0.608238 -20.397511
v 9.549732 0.601671 -17.245953
v -6.107983 0.525466 -2.454192
v -9.003974 0.005996 -7.458276
v -2.623720 0.032404 -5.073936
v -18.428394 0.668670 -2.078961
v -18.274773 0.608238 -14.147510
v -24.498720 0.032404 -12.365604
v -14.797895 0.665952 -18.986465
v -5.748720 0.032404 16.801064
v -5.748720 0.032404 23.051064
v -2.843604 1.262019 20.093758
v -17.846262 -0.092999 15.536366
v -18.531351 0.042755 22.896978
v -21.373720 0.032404 19.926064
v -15.278549 1.260515 20.098585
v 21.766550 0.030026 15.073849
v 18.748789 0.381453 22.081612
v 16.126280 0.032404 19.926064
v 3.471450 1.260515 20.098585
v 6.725227 0.608238 4.602490
v 3.257457 0.663750 7.562495
v 19.591183 0.472706 6.556874
v -8.873720 0.032404 7.426064
v -2.799757 0.328591 7.524297
v 16.126280 0.032404 -17.573936
v 21.009653 0.739934 -17.938097
v 25.501081 0.028953 -14.536821
v 16.014427 0.023752 -14.482507
v 16.100227 0.608238 -20.397511
v -2.059242 0.586993 11.131127
v -11.821380 0.598138 11.001183
v 16.327673 0.610880 10.436495
v 16.754379 0.509176 2.088207
v 8.987648 0.610952 10.471339
v 3.332603 0.596018 10.905586
v 3.450243 0.328591 4.399298
v 8.489295 0.017004 22.875069
v 22.081593 0.020880 26.175444
v 15.999370 0.346685 23.108606
v -15.212671 0.181993 11.753511
v -21.399773 0.608238 4.602490
v -21.399773 0.608238 17.102489
v -9.081676 1.145428 22.707336
v -11.319385 0.610753 15.260637
v -15.123720 0.032404 -14.448936
v -24.498720 0.032404 -23.823936
v -15.346666 0.077628 -4.601107
v -2.649773 0.608238 -1.647510
v -8.873720 0.032404 -1.948936
v 3.626280 0.032404 -14.448936
v -2.424423 0.604556 -20.419426
v 9.876280 0.032404 -1.948936
v 3.535173 0.609743 -1.652338
v 22.376280 0.032404 -9.240602
v 15.636843 -0.064480 -2.495543
v -1.998532 -0.061406 -10.596926
v -14.917161 -0.007985 -7.719305
v -2.714827 0.609743 17.097662
v -15.149773 0.608238 17.102489
v 6.903096 1.218970 17.114424
v 20.904610 0.746554 -19.477587
vn -0.1882 0.9801 0.0628
vn -0.0119 0.9765 -0.2153
vn 0.0285 0.9995 -0.0095
vn -0.0804 0.9829 -0.1658
vn 0.1984 0.9799 -0.0181
vn -0.1851 0.9827 0.0023
vn -0.0000 0.9862 -0.1657
vn -0.0003 0.9787 0.2053
vn -0.1756 0.9845 -0.0006
vn -0.2171 0.9761 -0.0014
vn -0.0148 0.9997 -0.0177
vn -0.0865 0.9875 0.1317
vn 0.1922 0.9551 0.2255
vn 0.2019 0.9792 0.0196
vn 0.1970 0.9489 0.2467
vn -0.0500 0.9937 -0.1001
vn -0.0023 1.0000 0.0009
vn 0.1880 0.9773 0.0980
vn 0.1404 0.9861 0.0890
vn -0.0036 1.0000 -0.0012
vn -0.0004 1.0000 -0.0009
vn 0.0310 0.9995 -0.0006
vn 0.1725 0.9850 0.0051
vn -0.1617 0.9679 0.1926
vn -0.0094 0.9762 0.2167
vn 0.0296 0.9995 -0.0107
vn 0.1435 0.9853 0.0927
vn 0.0814 0.9965 0.0184
vn 0.1167 0.9928 -0.0262
vn -0.0047 0.9767 0.2147
vn -0.1511 0.9617 0.2286
vn 0.1952 0.9578 0.2112
vn 0.0273 0.9767 -0.2130
vn 0.0069 0.9970 0.0773
vn 0.1956 0.9803 -0.0259
vn -0.0032 1.0000 0.0034
vn -0.0009 0.9999 -0.0165
vn -0.1681 0.9857 0.0133
vn 0.0012 1.0000 -0.0008
vn 0.0983 0.9795 -0.1756
vn 0.0008 1.0000 -0.0022
vn -0.1687 0.9717 -0.1654
vn -0.0852 0.9928 -0.0847
vn -0.1962 0.9805 0.0151
vn 0.1837 0.9820 0.0448
vn -0.1052 0.9447 0.3106
vn -0.0290 0.9996 0.0027
vn 0.0478 0.9896 -0.1355
vn -0.1312 0.9871 -0.0916
vn 0.1805 0.9753 0.1272
vn 0.1576 0.9875 -0.0097
vn 0.0944 0.9759 -0.1970
vn 0.1795 0.9838 -0.0007
vn 0.0031 0.9866 -0.1632
vn -0.0035 0.9783 -0.2072
vn 0.1463 0.9892 0.0025
vn -0.2082 0.9755 -0.0711
vn 0.0106 0.9999 -0.0004
vn -0.0023 0.9812 0.1930
vn 0.1625 0.9866 0.0114
vn -0.1456 0.9641 -0.2219
vn -0.1309 0.9814 -0.1405
vn 0.0010 0.9866 -0.1629
vn 0.0358 0.9985 -0.0413
vn -0.0691 0.9868 -0.1467
vn -0.0474 0.9886 0.1429
vn -0.0728 0.9830 -0.1688
vn -0.1592 0.9786 -0.1301
vn 0.0011 1.0000 -0.0000
vn 0.0058 0.9887 -0.1499
vn -0.0626 0.9891 0.1330
vn -0.1418 0.9894 0.0301
vn 0.0012 0.9794 0.2019
vn -0.0000 1.0000 -0.0000
vn 0.0724 0.9966 -0.0393
vn -0.2208 0.9730 0.0678
vn -0.1540 0.9742 -0.1649
vn 0.0373 0.9724 0.2302
vn 0.2990 0.9421 0.1517
vn -0.2011 0.9612 0.1891
vn -0.0552 0.9911 0.1209
vn 0.1133 0.9892 -0.0927
vn -0.1377 0.9877 -0.0744
vn 0.0008 0.9814 -0.1919
vn -0.1321 0.9911 0.0137
vn -0.0644 0.9874 0.1449
vn -0.0484 0.9970 -0.0602
vn -0.0199 0.9996 0.0208
vn -0.0013 0.9999 0.0156
vn -0.0697 0.9964 0.0477
vn -0.1358 0.9897 -0.0445
vn 0.0031 0.9864 -0.1642
vn -0.0450 0.9891 0.1400
vn 0.0107 0.9999 0.0107
vn 0.1806 0.9835 0.0093
vn -0.0006 1.0000 -0.0013
vn -0.1312 0.9797 -0.1513
vn -0.0938 0.9865 0.1345
vn 0.0007 0.9826 0.1858
vn -0.0000 1.0000 0.0069
vn 0.0549 0.9924 0.1104
vn 0.1425 0.9859 -0.0875
vn -0.1518 0.9771 -0.1491
vn 0.1292 0.9868 -0.0972
vn -0.0000 1.0000 -0.0057
vn -0.0133 0.9859 -0.1669
vn 0.0049 1.0000 0.0049
vn -0.0077 0.9781 0.2081
vn -0.0543 0.9975 -0.0461
vn -0.0704 0.9967 -0.0411
vn 0.0357 0.9993 -0.0056
vn -0.0000 1.0000 0.0008
vn 0.1439 0.9761 -0.1627
vn -0.1999 0.9797 0.0135
vn 0.1068 0.9920 -0.0670
vn -0.1191 0.9803 -0.1579
vn -0.0541 0.9368 0.3458
vn -0.1549 0.9707 -0.1836
vn 0.0014 0.9999 -0.0125
vn -0.1978 0.9801 0.0175
vn 0.1284 0.9905 -0.0484
vn 0.1104 0.9939 -0.0023
vn 0.0079 0.9959 0.0901
vn 0.0984 0.9808 0.1682
vn 0.1895 0.9633 0.1901
vn 0.0186 0.9996 0.0211
vn -0.1408 0.9894 0.0354
vn 0.0213 0.9991 -0.0374
vn -0.1825 0.9832 0.0003
vn 0.0514 0.9928 0.1080
vn -0.1494 0.9771 -0.1516
vn -0.0677 0.9412 0.3309
vn -0.0019 1.0000 -0.0010
vn -0.0072 0.9999 -0.0099
vn 0.0001 0.9996 -0.0285
vn -0.1828 0.9832 0.0016
vn -0.0207 0.9796 0.2000
vn -0.0498 0.9386 0.3414
vn -0.1108 0.9930 -0.0413
vn 0.0004 1.0000 -0.0084
vn 0.0436 0.9986 0.0285
vn -0.2671 0.9182 0.2926
vn -0.0069 1.0000 0.0069
vn 0.1474 0.9749 -0.1671
vn 0.1834 0.9830 -0.0016
vn -0.1893 0.9819 0.0062
vn -0.0013 1.0000 0.0013
vn -0.1910 0.9816 -0.0073
vn 0.2260 0.9740 0.0123
vn 0.1939 0.9810 0.0070
vn -0.0023 0.9777 0.2102
vn -0.0018 1.0000 -0.0001
vn 0.0150 0.9861 -0.1656
vn -0.0296 0.9993 0.0245
vn 0.1634 0.9745 -0.1535
vn -0.0432 0.9977 -0.0517
vn 0.1433 0.9762 -0.1630
vn 0.0496 0.9909 0.1254
vn 0.0553 0.9856 0.1597
vn 0.0031 0.9999 -0.0130
vn 0.1864 0.9794 0.0777
vn 0.1663 0.9824 -0.0852
vn -0.0004 1.0000 0.0024
vn -0.0568 0.9917 -0.1153
vn 0.2508 0.9680 -0.0000
vn -0.0002 1.0000 -0.0002
vn 0.0284 0.9853 0.1682
vn 0.1910 0.9816 0.0035
vn 0.2118 0.9765 0.0409
vn -0.1799 0.9837 0.0002
vn 0.0422 0.9977 -0.0539
vn -0.2217 0.9749 0.0229
vn -0.1882 0.9816 -0.0329
vn 0.1229 0.9865 -0.1081
vn 0.1393 0.9902 -0.0010
vn -0.1584 0.9801 -0.1194
vn 0.1874 0.9823 -0.0012
vn -0.1596 0.9627 -0.2187
vn 0.1281 0.9832 -0.1298
vn -0.1888 0.9818 0.0199
vn 0.1395 0.9725 -0.1865
vn -0.1475 0.9678 -0.2041
vn -0.1575 0.9737 -0.1648
vn 0.0543 0.9945 -0.0891
vn 0.2092 0.9775 0.0282
vn 0.1774 0.9841 0.0100
vn -0.0034 0.9808 0.1950
vn 0.1472 0.9719 -0.1838
vn 0.1571 0.9876 -0.0028
vn 0.0067 0.9952 0.0980
vn -0.1874 0.9823 0.0046
vn -0.0000 1.0000 -0.0012
vt 0.000000 0.442814
vt 0.311336 0.000000
vt 0.250000 0.553377
vt 0.750000 0.500000
vt 0.751039 0.250000
vt 0.250000 0.750000
vt 0.764019 0.000000
vt 0.645833 1.000000
vt 0.520833 0.875000
vt 0.500000 0.375000
vt 0.625000 0.527570
vt 0.000000 0.131048
vt 0.500000 0.625000
vt 0.500000 0.125000
vt 0.875000 0.537364
vt 0.731178 0.375000
vt 0.746001 0.125000
vt 0.864777 0.239576
vt 0.226595 0.386918
vt 0.250000 0.125000
vt 0.250000 0.625000
vt 0.376229 0.801466
vt 0.750000 0.875000
vt 0.750000 0.625000
vt 0.855538 0.750000
vt 0.625000 0.625000
vt 0.125000 0.875000
vt 0.365397 0.125000
vt 0.125000 0.125000
vt 0.125000 0.392891
vt 0.625000 0.125000
vt 0.625000 0.375000
vt 0.371469 0.421265
vt 0.375000 0.875000
vt 0.000000 0.000000
vt 1.000000 0.000001
vt 0.480313 0.437500
vt 0.062500 0.507235
vt 0.499339 0.500000
vt 0.805991 1.000000
vt 0.500000 0.209978
vt 0.312500 0.500000
vt 0.699815 0.437500
vt 0.750000 0.187500
vt 0.562500 0.250000
vt 0.250000 0.437500
vt 0.062500 0.330517
vt 0.310787 0.876713
vt 0.250000 0.687500
vt 0.062500 0.819579
vt 0.312500 0.766930
vt 0.718899 0.937500
vt 0.744921 0.687500
vt 0.528196 0.750000
vt 0.179185 0.990854
vt 0.500000 0.812500
vt 0.184976 0.500000
vt 0.687500 0.500000
vt 0.429392 1.000837
vt 1.000004 0.999997
vt 0.500000 0.562500
vt 0.489972 0.062500
vt 0.750000 0.312500
vt 0.750000 0.062500
vt 0.937500 0.304668
vt 0.234004 0.062500
vt 0.187500 0.250000
vt 0.431099 0.250000
vt 0.250000 0.863832
vt 0.875000 0.687500
vt 0.812500 0.690639
vt 0.511202 0.687500
vt 0.562500 0.625000
vt 0.687500 0.625000
vt 0.625000 0.937500
vt 0.681490 0.875000
vt 0.375000 0.578444
vt 0.312500 0.672687
vt 0.437500 0.625000
vt 0.125000 0.571480
vt 0.125000 0.812500
vt -0.012703 0.780996
vt 0.187500 0.909279
vt 0.375000 0.187500
vt 0.375000 0.062500
vt 0.437500 0.125000
vt 0.125000 0.212794
vt 0.119347 0.062500
vt 0.062500 0.125000
vt 0.187500 0.125000
vt 0.931623 0.194631
vt 0.875000 0.083040
vt 0.812500 0.125000
vt 0.562500 0.125000
vt 0.625000 0.437500
vt 0.562500 0.375000
vt 0.875000 0.399543
vt 0.312500 0.375000
vt 0.437500 0.375000
vt 0.812500 0.875000
vt 0.910689 0.875000
vt 0.990460 0.823794
vt 0.810263 0.812500
vt 0.812500 0.937500
vt 0.450881 0.312500
vt 0.254068 0.312500
vt 0.812500 0.320820
vt 0.812500 0.488829
vt 0.670248 0.312500
vt 0.557258 0.312500
vt 0.562500 0.437500
vt 0.659760 0.062500
vt 0.903309 0.028309
vt 0.812500 0.062500
vt 0.183099 0.312500
vt 0.062500 0.437500
vt 0.062500 0.187500
vt 0.312500 0.062500
vt 0.269634 0.218065
vt 0.187500 0.812500
vt 0.000000 1.000000
vt 0.187500 0.615543
vt 0.437500 0.562500
vt 0.312500 0.562500
vt 0.562500 0.812500
vt 0.442007 0.937500
vt 0.687500 0.562500
vt 0.562500 0.562500
vt 0.937500 0.708333
vt 0.802540 0.562500
vt 0.437500 0.735460
vt 0.187500 0.677907
vt 0.437500 0.187500
vt 0.187500 0.187500
vt 0.630922 0.187500
vt 0.908588 0.937500
s 0
usemtl Material.003
f 43/43/1 4/4/1 58/58/1
f 44/44/2 5/5/2 135/135/2
f 36/36/3 65/65/3 91/91/3
f 134/134/4 119/119/4 67/67/4
f 41/41/5 68/68/5 133/133/5
f 130/130/6 15/15/6 71/71/6
f 75/75/7 8/8/7 126/126/7
f 103/103/8 23/23/8 76/76/8
f 124/124/9 77/77/9 78/78/9
f 38/38/10 80/80/10 50/50/10
f 50/50/11 27/27/11 82/82/11
f 120/120/12 69/69/12 83/83/12
f 62/62/13 14/14/13 86/86/13
f 87/87/14 47/47/14 117/117/14
f 66/66/15 20/20/15 90/90/15
f 92/92/16 93/93/16 114/114/16
f 36/36/17 91/91/17 113/113/17
f 112/112/18 31/31/18 94/94/18
f 63/63/19 16/16/19 109/109/19
f 56/56/20 9/9/20 22/22/20
f 129/129/21 102/102/21 25/25/21
f 51/51/22 69/69/22 6/6/22
f 65/65/23 97/97/23 18/18/23
f 63/63/24 107/107/24 16/16/24
f 43/43/25 108/108/25 4/4/25
f 107/107/26 97/97/26 108/108/26
f 109/109/27 16/16/27 32/32/27
f 110/110/28 96/96/28 10/10/28
f 111/111/29 39/39/29 37/37/29
f 112/112/30 17/17/30 31/31/30
f 7/7/31 64/64/31 112/112/31
f 31/31/32 135/135/32 94/94/32
f 18/18/33 5/5/33 44/44/33
f 67/67/34 115/115/34 87/87/34
f 30/30/35 116/116/35 47/47/35
f 2/2/36 66/66/36 35/35/36
f 28/28/37 119/119/37 20/20/37
f 57/57/38 3/3/38 122/122/38
f 38/38/39 82/82/39 1/1/39
f 78/78/40 49/49/40 21/21/40
f 76/76/41 126/126/41 9/9/41
f 39/39/42 128/128/42 61/61/42
f 11/11/43 128/128/43 39/39/43
f 3/3/44 57/57/44 19/19/44 46/46/44
f 73/73/45 72/72/45 13/13/45
f 26/26/46 72/72/46 73/73/46
f 36/36/47 129/129/47 65/65/47
f 108/108/48 130/130/48 4/4/48
f 108/108/49 15/15/49 130/130/49
f 71/71/50 25/25/50 53/53/50
f 71/71/51 53/53/51 24/24/51
f 129/129/52 25/25/52 70/70/52
f 129/129/53 70/70/53 15/15/53
f 53/53/54 25/25/54 72/72/54
f 23/23/55 52/52/55 76/76/55
f 131/131/56 22/22/56 77/77/56
f 27/27/57 83/83/57 55/55/57
f 19/19/58 57/57/58 30/30/58
f 17/17/59 44/44/59 135/135/59
f 65/65/60 15/15/60 97/97/60
f 37/37/61 39/39/61 33/33/61
f 34/34/62 126/126/62 59/59/62
f 126/126/63 8/8/63 59/59/63
f 55/55/64 83/83/64 48/48/64 59/59/64
f 26/26/65 73/73/65 128/128/65 11/11/65
f 132/132/66 49/49/66 6/6/66
f 131/131/67 72/72/67 54/54/67
f 71/71/68 70/70/68 25/25/68
f 36/36/69 102/102/69 129/129/69
f 72/72/70 25/25/70 54/54/70
f 24/24/71 74/74/71 127/127/71 130/130/71
f 22/22/72 51/51/72 78/78/72 77/77/72
f 125/125/73 103/103/73 76/76/73
f 13/13/74 79/79/74 123/123/74 61/61/74
f 38/38/75 116/116/75 30/30/75 57/57/75
f 122/122/76 3/3/76 21/21/76
f 50/50/77 81/81/77 27/27/77
f 84/84/78 68/68/78 119/119/78
f 118/118/79 85/85/79 28/28/79
f 88/88/80 29/29/80 89/89/80
f 11/11/81 39/39/81 111/111/81 95/95/81
f 115/115/82 30/30/82 47/47/82
f 115/115/83 106/106/83 19/19/83
f 135/135/84 5/5/84 45/45/84
f 112/112/85 64/64/85 17/17/85
f 32/32/86 96/96/86 110/110/86 109/109/86
f 33/33/87 98/98/87 106/106/87 105/105/87
f 97/97/88 15/15/88 108/108/88
f 33/33/89 39/39/89 42/42/89
f 10/10/90 99/99/90 105/105/90 110/110/90
f 48/48/91 51/51/91 22/22/91 34/34/91
f 40/40/92 104/104/92 136/136/92 60/60/92
f 101/101/93 100/100/93 103/103/93 102/102/93
f 104/104/94 52/52/94 23/23/94 100/100/94
f 103/103/95 100/100/95 23/23/95
f 25/25/96 102/102/96 103/103/96
f 52/52/97 104/104/97 40/40/97
f 136/136/98 104/104/98 100/100/98 101/101/98
f 56/56/99 22/22/99 131/131/99 54/54/99
f 22/22/100 9/9/100 34/34/100
f 105/105/101 68/68/101 41/41/101 110/110/101
f 51/51/102 48/48/102 69/69/102
f 48/48/103 34/34/103 59/59/103
f 105/105/104 99/99/104 33/33/104
f 106/106/105 119/119/105 68/68/105 105/105/105
f 106/106/106 98/98/106 19/19/106
f 3/3/107 46/46/107 33/33/107 42/42/107
f 33/33/108 46/46/108 19/19/108 98/98/108
f 107/107/109 63/63/109 5/5/109 18/18/109
f 108/108/110 43/43/110 16/16/110 107/107/110
f 18/18/111 97/97/111 107/107/111
f 110/110/112 45/45/112 5/5/112 109/109/112
f 5/5/113 63/63/113 109/109/113
f 41/41/114 45/45/114 110/110/114
f 37/37/115 10/10/115 96/96/115 111/111/115
f 95/95/116 111/111/116 96/96/116 32/32/116
f 94/94/117 14/14/117 62/62/117 112/112/117
f 135/135/118 41/41/118 14/14/118 94/94/118
f 7/7/119 112/112/119 62/62/119
f 41/41/120 135/135/120 45/45/120
f 17/17/121 64/64/121 114/114/121 93/93/121
f 113/113/122 91/91/122 92/92/122
f 92/92/123 114/114/123 7/7/123 113/113/123
f 7/7/124 114/114/124 64/64/124
f 44/44/125 17/17/125 93/93/125 18/18/125
f 91/91/126 18/18/126 93/93/126 92/92/126
f 106/106/127 115/115/127 67/67/127 119/119/127
f 115/115/128 19/19/128 30/30/128
f 116/116/129 1/1/129 12/12/129 47/47/129
f 87/87/130 115/115/130 47/47/130
f 1/1/131 116/116/131 38/38/131
f 90/90/132 29/29/132 88/88/132 66/66/132
f 12/12/133 35/35/133 88/88/133 89/89/133
f 35/35/134 66/66/134 88/88/134
f 117/117/135 89/89/135 29/29/135 87/87/135
f 12/12/136 117/117/136 47/47/136
f 12/12/137 89/89/137 117/117/137
f 86/86/138 28/28/138 85/85/138 62/62/138
f 20/20/139 66/66/139 118/118/139 28/28/139
f 7/7/140 62/62/140 85/85/140
f 85/85/141 118/118/141 2/2/141 7/7/141
f 2/2/142 118/118/142 66/66/142
f 83/83/143 27/27/143 81/81/143 120/120/143
f 28/28/144 84/84/144 119/119/144
f 81/81/145 80/80/145 132/132/145 120/120/145
f 69/69/146 120/120/146 132/132/146 6/6/146
f 121/121/147 82/82/147 27/27/147 55/55/147
f 50/50/148 80/80/148 81/81/148
f 21/21/149 3/3/149 124/124/149 78/78/149
f 57/57/150 122/122/150 80/80/150
f 38/38/151 57/57/151 80/80/151
f 38/38/152 50/50/152 82/82/152
f 77/77/153 123/123/153 79/79/153
f 39/39/154 123/123/154 77/77/154
f 39/39/155 61/61/155 123/123/155
f 77/77/156 124/124/156 42/42/156 39/39/156
f 42/42/157 124/124/157 3/3/157
f 51/51/158 6/6/158 49/49/158 78/78/158
f 9/9/159 56/56/159 125/125/159 76/76/159
f 125/125/160 54/54/160 25/25/160 103/103/160
f 54/54/161 125/125/161 56/56/161
f 26/26/162 11/11/162 127/127/162 74/74/162
f 76/76/163 75/75/163 126/126/163
f 130/130/164 127/127/164 58/58/164 4/4/164
f 58/58/165 127/127/165 11/11/165
f 13/13/166 61/61/166 128/128/166 73/73/166
f 72/72/167 26/26/167 74/74/167 53/53/167
f 65/65/168 129/129/168 15/15/168
f 130/130/169 71/71/169 24/24/169
f 71/71/170 15/15/170 70/70/170
f 8/8/171 75/75/171 52/52/171 40/40/171
f 74/74/172 24/24/172 53/53/172
f 72/72/173 131/131/173 79/79/173 13/13/173
f 76/76/174 52/52/174 75/75/174
f 79/79/175 131/131/175 77/77/175
f 49/49/176 132/132/176 122/122/176 21/21/176
f 122/122/177 132/132/177 80/80/177
f 133/133/178 84/84/178 28/28/178 86/86/178
f 69/69/179 48/48/179 83/83/179
f 84/84/180 133/133/180 68/68/180
f 133/133/181 86/86/181 14/14/181 41/41/181
f 134/134/182 87/87/182 29/29/182 90/90/182
f 87/87/183 134/134/183 67/67/183
f 134/134/184 90/90/184 20/20/184 119/119/184
f 11/11/185 95/95/185 43/43/185 58/58/185
f 91/91/186 65/65/186 18/18/186
f 31/31/187 17/17/187 135/135/187
f 95/95/188 32/32/188 16/16/188 43/43/188
f 136/136/189 101/101/189 102/102/189 60/60/189
f 99/99/190 37/37/190 33/33/190
f 99/99/191 10/10/191 37/37/191
f 34/34/192 9/9/192 126/126/192
