# Blender 3.3.0
# www.blender.org
mtllib Bola03.mtl.mtl
o Sphere
v -5.826775 0.309017 -0.951057
v -5.526159 0.828693 -0.525567
v -6.404730 -0.536192 -0.642659
v -6.379827 -0.317042 -0.801441
v -5.552805 -0.822482 -0.537691
v -5.710215 0.995962 -0.289470
v -5.406794 0.600941 -0.750651
v -5.326635 0.322788 -0.852486
v -5.211184 -0.001626 -0.785686
v -5.238242 -0.321538 -0.731758
v -5.453469 -0.599724 -0.726814
v -5.102578 0.600569 -0.465946
v -4.950675 0.119157 -0.560126
v -5.188078 -0.649484 -0.412958
v -5.664725 -0.963253 -0.292191
v -5.420119 0.176170 -0.932295
v -5.024594 0.602828 -0.077025
v -4.848867 -0.010030 -0.224168
v -4.969094 -0.390619 -0.339156
v -5.350129 -0.833549 -0.320568
v -4.878967 0.309017 0.078538
v -4.827242 -0.184573 0.089318
v -5.059162 -0.696215 -0.040740
v -5.510152 -0.952522 -0.035187
v -5.249231 0.816607 0.167880
v -4.918215 0.176156 0.411680
v -4.931156 -0.312858 0.381625
v -5.510468 0.964360 0.081874
v -5.090935 0.622526 0.432554
v -5.127060 0.309017 0.644133
v -5.085924 0.001968 0.679596
v -5.125093 -0.613760 0.411729
v -5.400079 0.615367 0.719876
v -5.374122 0.309017 0.836429
v -5.350828 0.000000 0.879474
v -5.244338 -0.340922 0.760726
v -5.505803 0.851701 0.553444
v -5.645156 0.318320 0.955470
v -5.647180 -0.006967 0.998873
v -5.756614 -0.356681 0.991175
v -5.523640 -0.640181 0.756562
v -5.631035 -0.959120 0.245079
v -5.798520 0.616869 0.816873
v -6.726387 -0.391540 0.285872
v -5.822652 -0.859146 0.579820
v -5.821958 0.975621 0.325144
v -6.024738 0.849757 0.580229
v -6.213687 0.620148 0.732802
v -6.235166 -0.339802 0.871355
v -6.050925 -0.960804 0.224439
v -6.327384 0.827832 0.336712
v -6.445607 0.330616 0.762459
v -6.652524 0.000000 0.539488
v -6.526484 -0.309033 0.644155
v -6.309854 -0.601811 0.660782
v -6.192790 -0.824572 0.466693
v -5.330285 -0.885256 -0.220409
v -5.594042 1.001055 -0.294470
v -6.139455 0.954910 0.063962
v -6.495948 0.609797 0.486520
v -6.697727 0.309017 0.382035
v -6.697727 -0.309017 0.382035
v -6.567651 -0.587785 0.324979
v -6.406629 -0.824311 0.127128
v -6.823529 0.141418 0.069411
v -6.261027 0.639373 0.701537
v -6.090312 0.846824 0.563689
v -6.414156 0.812979 -0.057347
v -6.645838 0.583872 -0.069704
v -6.748736 0.304725 -0.242223
v -6.796175 0.000000 -0.245485
v -6.748729 -0.309017 -0.233470
v -6.439780 0.622102 -0.533006
v -6.622974 0.304725 -0.528931
v -6.652184 -0.174893 -0.553603
v -6.369066 -0.850070 -0.255510
v -6.051916 0.988333 -0.210269
v -6.268105 0.836545 -0.392270
v -6.426476 0.174893 -0.805842
v -6.410057 -0.310108 -0.751617
v -6.444153 -0.610154 -0.534224
v -6.066418 -0.969750 -0.224614
v -5.935727 0.840953 -0.561083
v -6.134353 0.309017 -0.913750
v -6.150245 0.000000 -0.960042
v -6.001452 -0.840193 -0.567273
v -5.986602 0.626683 -0.782294
v -6.391820 0.037198 -0.841045
v -5.961915 -0.338347 -0.952305
v -5.958910 -0.621529 -0.814625
v -4.947038 0.013396 0.516051
v -4.953115 -0.216274 0.501936
v -5.100204 -0.229454 0.679983
v -5.025804 -0.068413 0.641880
v -5.774799 0.252120 1.002564
v -5.776297 0.011449 1.034676
v -5.857264 -0.247294 1.028981
v -5.888268 0.473007 0.900020
v -6.059942 0.266610 0.996856
v -5.999223 0.002252 1.051373
v -6.195439 0.475433 0.837818
v -6.367030 0.261217 0.859761
v -6.251184 0.011144 0.955775
v -6.211330 -0.234806 0.940330
v -6.520122 0.016604 0.694791
v -6.426869 -0.212041 0.772231
v -5.807543 -0.437347 0.957437
v -5.628826 -0.654823 0.777464
v -5.858202 -0.822793 0.641883
v -5.926331 -0.664519 0.835250
v -6.231938 -0.625388 0.703990
v -6.142138 -0.796271 0.555102
v -6.174644 -0.424399 0.865522
v -6.627579 -0.603298 0.242531
v -6.505263 -0.782969 0.092240
v -6.821949 -0.049380 0.048396
v -6.784769 -0.391540 0.055329
v -6.683617 -0.616429 -0.037106
v -6.726387 0.077931 0.285872
v -6.801170 -0.156805 -0.190805
v -6.765130 -0.391540 -0.181678
v -6.476729 -0.802536 -0.198420
v -6.533767 -0.620290 -0.410137
v -6.691791 -0.289657 -0.424858
v -6.692050 -0.156805 0.405477
v -6.516048 0.630021 0.479023
v -6.363752 0.827014 0.343673
v -6.698355 0.358268 0.384621
v -6.651474 0.606598 -0.023523
v -6.812017 0.206843 0.102167
v -6.442150 0.813595 -0.012359
v -5.596446 1.014268 0.061898
v -5.745301 1.037819 -0.214835
v -5.828575 1.022660 0.243187
v -6.065179 1.007226 0.048549
v -5.833165 1.071757 0.005251
v -5.999943 1.032133 -0.155813
v -5.451540 0.871550 -0.477265
v -5.249322 0.873342 -0.243498
v -5.123589 0.694928 -0.431104
v -5.359123 0.695216 -0.651532
v -5.063211 0.696677 -0.129988
v -5.439391 0.976587 -0.006963
v -5.237132 0.862192 0.059626
v -5.541024 -0.046279 -0.996614
v -5.551630 -0.259671 -0.965149
v -5.764790 0.166679 -1.000224
v -5.340556 -0.047399 -0.886259
v -5.359203 -0.267866 -0.849095
v -5.507527 -0.459577 -0.845688
v -5.976756 0.166679 -0.974515
v -5.987708 -0.046279 -1.006416
v -5.857921 -0.279450 -1.001084
v -5.764790 -0.046279 -1.033953
v -5.855850 -0.474604 -0.906202
v -6.190063 -0.090542 -0.953672
v -6.052509 -0.337667 -0.948021
v -6.050314 -0.544501 -0.847461
v -5.611313 -1.006522 -0.028594
v -5.712047 -1.013515 -0.196081
v -5.690091 -1.010821 0.154053
v -5.963729 -1.011919 0.140602
v -5.973826 -1.017749 -0.152041
v -5.817552 -1.032144 -0.011832
v -5.459956 -0.981663 0.010842
v -5.261591 -0.906883 0.118415
v -5.198972 -0.736104 -0.295275
v -5.094508 -0.773971 0.006342
v -5.557910 -0.987009 0.237948
v -5.147933 -0.707156 0.372988
v -5.429010 -0.880820 0.423610
v -5.470885 -0.728566 0.652415
v -5.713182 -0.905998 0.509196
v -4.993156 0.494309 -0.381990
v -4.893704 0.179125 -0.443650
v -4.942100 0.495788 -0.127361
v -4.863683 0.303428 -0.229786
v -4.827050 0.094546 -0.223696
v -4.846757 0.303428 -0.025513
v -4.812892 -0.019729 -0.018455
vn 0.0718 0.8394 -0.5387
vn 0.6426 -0.1799 -0.7448
vn 0.1681 0.3865 -0.9069
vn 0.8092 0.5037 0.3025
vn -0.5858 0.8056 -0.0888
vn 0.3612 -0.9152 -0.1790
vn 0.3496 0.8489 0.3965
vn 0.4722 -0.8622 0.1834
vn 0.9635 -0.2002 -0.1779
vn -0.0609 0.7915 -0.6082
vn 0.9501 -0.2400 -0.1992
vn -0.0213 -0.8633 0.5042
vn 0.9817 0.1063 0.1581
vn 0.7257 0.6846 0.0680
vn 0.7881 0.2793 0.5485
vn -0.3658 -0.9133 -0.1793
vn 0.4296 0.8793 0.2058
vn 0.5179 0.6352 0.5730
vn 0.5705 -0.5410 0.6179
vn 0.5271 0.8226 -0.2135
vn 0.1877 0.6203 0.7616
vn 0.6078 -0.4265 0.6698
vn 0.0202 0.8901 0.4552
vn -0.0100 -0.9597 0.2809
vn 0.4462 -0.8643 -0.2323
vn -0.2271 -0.4982 0.8368
vn -0.1494 0.6296 0.7624
vn -0.1424 0.8332 -0.5343
vn -0.7625 0.0418 0.6456
vn -0.7886 0.3545 0.5025
vn -0.4832 0.8724 0.0735
vn -0.5503 -0.7004 -0.4546
vn -0.9761 0.1536 -0.1538
vn -0.4809 -0.8761 0.0340
vn -0.9310 0.3635 -0.0329
vn 0.3725 0.8175 0.4392
vn -0.9259 -0.1555 -0.3444
vn -0.6640 0.3749 -0.6470
vn -0.4235 -0.7398 -0.5228
vn -0.7950 0.0794 -0.6014
vn -0.4394 0.7633 0.4736
vn -0.0456 -0.9315 -0.3608
vn -0.0681 -0.8699 -0.4885
vn -0.1091 0.4230 -0.8995
vn 0.0659 -0.8783 -0.4736
vn 0.0747 0.7142 -0.6959
vn 0.6019 0.0501 -0.7970
vn 0.1119 0.4479 -0.8870
vn 0.1143 -0.7168 -0.6878
vn -0.3210 -0.1999 -0.9257
vn -0.2298 0.1557 -0.9607
vn 0.7461 -0.2459 -0.6187
vn 0.5280 -0.4216 -0.7372
vn 0.6350 0.0675 -0.7696
vn 0.3294 -0.8761 -0.3522
vn 0.9410 0.2798 -0.1903
vn 0.6669 -0.4645 -0.5827
vn 0.6630 0.3704 -0.6505
vn 0.5047 -0.6865 -0.5235
vn 0.7465 0.6475 -0.1534
vn 0.8201 0.5259 0.2256
vn 0.6299 0.3886 -0.6725
vn 0.9186 -0.1846 -0.3494
vn -0.3485 -0.9340 0.0795
vn 0.9170 -0.1897 -0.3508
vn 0.8676 -0.4540 -0.2031
vn 0.9320 -0.3075 0.1918
vn 0.0428 0.7136 -0.6993
vn 0.8645 -0.4737 0.1680
vn 0.8942 0.4151 0.1678
vn 0.6845 -0.5024 0.5283
vn 0.5326 -0.7044 -0.4692
vn 0.9473 -0.0446 0.3172
vn 0.6054 0.3646 0.7075
vn 0.5251 0.8050 0.2762
vn 0.7188 -0.4069 0.5637
vn 0.7799 0.1739 0.6013
vn 0.7653 -0.5502 -0.3341
vn 0.2103 0.9514 0.2252
vn 0.6003 -0.0893 0.7948
vn 0.5996 0.1626 0.7836
vn -0.1168 -0.8917 -0.4372
vn 0.3842 0.1373 0.9130
vn 0.3954 -0.1670 0.9032
vn 0.1284 -0.7231 0.6787
vn 0.2818 0.4426 0.8513
vn 0.3898 -0.3755 0.8409
vn -0.6005 -0.3393 0.7240
vn -0.4953 -0.7039 0.5091
vn 0.0885 0.4565 0.8853
vn -0.5338 -0.4320 0.7269
vn 0.0326 0.7278 0.6850
vn -0.2066 -0.8913 0.4037
vn -0.1592 0.5666 0.8085
vn 0.2247 -0.7792 0.5851
vn 0.2526 -0.1002 0.9624
vn -0.4926 0.4696 0.7327
vn -0.2024 -0.8995 0.3873
vn -0.6327 0.6615 -0.4027
vn -0.2666 0.9311 0.2489
vn -0.5902 -0.3968 0.7030
vn -0.5714 0.5225 0.6329
vn -0.7535 -0.0866 0.6517
vn -0.8272 -0.1543 0.5404
vn -0.7210 -0.4732 0.5062
vn -0.5928 -0.6995 0.3991
vn -0.8276 0.1540 0.5398
vn -0.4784 -0.7318 0.4854
vn -0.4065 -0.8773 0.2553
vn -0.0320 0.9982 -0.0501
vn -0.9962 0.0013 -0.0871
vn -0.0285 0.9991 -0.0314
vn -0.3674 -0.9296 0.0290
vn -0.7360 -0.3768 -0.5623
vn -0.6856 -0.4388 0.5809
vn -0.9587 0.0123 -0.2840
vn -0.8098 0.4826 -0.3337
vn -0.8484 -0.1500 -0.5077
vn -0.8942 0.1029 -0.4358
vn -0.3934 -0.9191 0.0232
vn -0.4664 0.8793 -0.0966
vn -0.6743 0.6972 -0.2435
vn -0.9167 -0.0512 0.3963
vn -0.3402 0.7035 -0.6240
vn -0.7029 -0.3632 -0.6115
vn -0.3047 -0.8704 -0.3868
vn -0.6641 -0.1052 -0.7402
vn -0.3698 -0.6995 -0.6115
vn -0.4504 0.4778 -0.7542
vn -0.1740 0.8860 -0.4298
vn -0.3891 -0.6559 -0.6468
vn -0.4044 0.1558 -0.9012
vn -0.8429 -0.2496 -0.4767
vn -0.1705 -0.4323 -0.8855
vn 0.1619 -0.6013 -0.7825
vn 0.8149 -0.1332 0.5640
vn 0.9771 -0.0387 0.2094
vn 0.7225 0.2780 0.6330
vn 0.5059 -0.0298 0.8621
vn 0.0033 0.4225 0.9064
vn -0.6961 -0.0474 0.7163
vn 0.0231 0.1716 0.9849
vn 0.0765 -0.0459 0.9960
vn -0.2756 0.4628 0.8425
vn -0.3799 0.1373 0.9148
vn -0.2920 -0.1789 0.9396
vn -0.6633 -0.0890 0.7431
vn 0.2817 0.1252 0.9513
vn 0.1518 -0.7380 0.6575
vn 0.1777 -0.5366 0.8249
vn -0.3140 -0.4313 0.8458
vn -0.3004 -0.7529 0.5855
vn -0.2438 -0.2392 0.9399
vn 0.2352 -0.4977 0.8349
vn -0.6759 -0.7368 -0.0167
vn -0.9537 -0.0622 0.2942
vn -0.8640 -0.4596 0.2056
vn -0.7375 -0.6513 0.1784
vn -0.9346 0.0431 0.3530
vn -0.9903 -0.1272 -0.0554
vn -0.9207 -0.3828 -0.0763
vn -0.7563 -0.5826 -0.2978
vn -0.8116 -0.4550 -0.3664
vn -0.9599 0.0024 0.2803
vn -0.9560 -0.0095 0.2931
vn -0.4685 0.7200 0.5120
vn -0.7137 0.6845 0.1484
vn -0.8734 0.4541 0.1760
vn -0.2121 0.6559 0.7244
vn -0.3955 -0.0532 0.9169
vn -0.9223 0.2901 -0.2553
vn -0.6106 -0.3421 0.7142
vn -0.9211 -0.0321 0.3879
vn 0.2471 0.9677 -0.0506
vn 0.1871 0.9628 0.1951
vn -0.2275 0.9528 0.2010
vn -0.2619 0.9645 0.0339
vn -0.0629 0.9823 -0.1766
vn 0.3704 0.8693 -0.3271
vn 0.7272 0.6699 -0.1497
vn 0.4892 0.8721 0.0124
vn 0.4709 0.7550 -0.4563
vn 0.3600 0.9259 -0.1148
vn 0.6888 0.7250 -0.0010
vn -0.0390 0.9936 0.1056
vn 0.4822 -0.0088 -0.8760
vn 0.1412 -0.1732 -0.9747
vn 0.1534 -0.4573 -0.8760
vn 0.1767 0.1693 -0.9696
vn 0.4892 -0.1684 -0.8558
vn 0.4669 -0.3755 -0.8007
vn -0.1201 0.1542 -0.9807
vn -0.1221 -0.0906 -0.9884
vn -0.1156 0.2790 -0.9533
vn -0.4232 -0.4546 -0.7837
vn -0.4734 -0.1826 -0.8617
vn -0.4232 0.1230 -0.8976
vn -0.0475 -0.0493 -0.9977
vn -0.0458 -0.4372 -0.8982
vn -0.8570 -0.0858 -0.5081
vn 0.1207 -0.9922 -0.0312
vn 0.1257 -0.9916 0.0309
vn -0.0024 -0.9916 0.1293
vn -0.1127 -0.9933 0.0237
vn -0.0009 -0.9949 -0.1011
vn 0.2995 -0.9481 0.1068
vn 0.5365 -0.7635 0.3595
vn 0.2408 -0.7871 0.5678
vn 0.5880 -0.7752 -0.2310
vn 0.4155 -0.8985 -0.1416
vn 0.6947 -0.6830 0.2257
vn 0.3511 -0.8968 0.2692
vn 0.5108 -0.6696 0.5391
vn 0.1949 -0.9036 0.3815
vn 0.9087 0.4105 -0.0753
vn 0.8826 0.3928 -0.2582
vn 0.9600 0.1617 -0.2287
vn 0.9907 0.1303 -0.0388
vn 0.7594 0.3473 -0.5502
vn 0.9515 0.1060 0.2889
vt 0.736842 0.600000
vt 0.656927 0.800000
vt 0.873277 0.300000
vt 0.842105 0.400000
vt 0.660246 0.200000
vt 0.676756 0.900000
vt 0.661453 0.700000
vt 0.655422 0.600000
vt 0.631579 0.500000
vt 0.631579 0.400000
vt 0.659355 0.300000
vt 0.578947 0.700000
vt 0.578947 0.540836
vt 0.554092 0.300000
vt 0.657899 0.100000
vt 0.655422 0.600000
vt 0.502079 0.700000
vt 0.526316 0.500000
vt 0.550159 0.400000
vt 0.556576 0.200000
vt 0.473684 0.600000
vt 0.473684 0.444478
vt 0.473684 0.300000
vt 0.500000 0.100000
vt 0.442512 0.800000
vt 0.421053 0.555522
vt 0.421053 0.400000
vt 0.447364 0.900000
vt 0.399593 0.700000
vt 0.368421 0.600000
vt 0.368421 0.500000
vt 0.398295 0.300000
vt 0.315790 0.700000
vt 0.315789 0.600000
vt 0.315789 0.500000
vt 0.339633 0.400000
vt 0.310391 0.800000
vt 0.263158 0.600000
vt 0.263158 0.500000
vt 0.210526 0.400000
vt 0.263158 0.400000
vt 0.294330 0.300000
vt 0.342109 0.100000
vt 0.241698 0.700000
vt 0.052632 0.400000
vt 0.235249 0.200000
vt 0.236877 0.900000
vt 0.181859 0.800000
vt 0.157895 0.700000
vt 0.157895 0.400000
vt 0.112957 0.100000
vt 1.000000 0.100000
vt 0.076596 0.800000
vt 0.131579 0.600000
vt 0.105263 0.500000
vt 0.052632 0.500000
vt 0.105263 0.400000
vt 0.135137 0.300000
vt 0.130611 0.200000
vt 0.556576 0.200000
vt 0.676756 0.900000
vt 0.035086 0.900000
vt 0.969127 0.900000
vt 0.083804 0.700000
vt 0.052632 0.600000
vt 0.052632 0.400000
vt 0.052632 0.300000
vt 0.021460 0.200000
vt 1.000000 0.200000
vt 1.000000 0.544690
vt 0.000000 0.544690
vt 0.157895 0.700000
vt 0.181859 0.800000
vt 0.000000 0.800000
vt 0.971332 0.800000
vt 0.975047 0.700000
vt 0.947368 0.600000
vt 0.947368 0.500000
vt 0.947368 0.400000
vt 0.870500 0.700000
vt 0.894737 0.600000
vt 0.894737 0.444478
vt 0.916196 0.200000
vt 0.863864 0.900000
vt 0.866069 0.800000
vt 0.842105 0.555522
vt 0.842105 0.400000
vt 0.873277 0.300000
vt 0.868386 0.100000
vt 0.763158 0.800000
vt 0.789474 0.600000
vt 0.789474 0.500000
vt 0.787167 0.200000
vt 0.765879 0.700000
vt 0.842105 0.555522
vt 0.760686 0.400000
vt 0.765879 0.300000
vt 0.421053 0.555522
vt 0.421053 0.400000
vt 0.339633 0.400000
vt 0.368421 0.500000
vt 0.263158 0.600000
vt 0.263158 0.500000
vt 0.263158 0.400000
vt 0.210526 0.400000
vt 0.241698 0.700000
vt 0.210526 0.600000
vt 0.210526 0.500000
vt 0.157895 0.700000
vt 0.131579 0.600000
vt 0.157895 0.500000
vt 0.157895 0.400000
vt 0.052632 0.500000
vt 0.105263 0.500000
vt 0.105263 0.400000
vt 0.210526 0.400000
vt 0.263158 0.400000
vt 0.294330 0.300000
vt 0.235249 0.200000
vt 0.210526 0.300000
vt 0.135137 0.300000
vt 0.130611 0.200000
vt 0.157895 0.400000
vt 0.052632 0.300000
vt 1.000000 0.200000
vt 0.021460 0.200000
vt 0.000000 0.544690
vt 1.000000 0.544690
vt 0.000000 0.400000
vt 1.000000 0.400000
vt 0.000000 0.300000
vt 0.978540 0.300000
vt 0.052632 0.600000
vt 0.947368 0.500000
vt 0.947368 0.400000
vt 0.916196 0.200000
vt 0.873277 0.300000
vt 0.894737 0.444478
vt 0.105263 0.500000
vt 0.052632 0.500000
vt 0.083804 0.700000
vt 0.076596 0.800000
vt 0.052632 0.600000
vt 0.000000 0.700000
vt 0.975047 0.700000
vt 1.000000 0.544690
vt 0.000000 0.544690
vt 0.971332 0.800000
vt 0.000000 0.800000
vt 0.447364 0.900000
vt 0.676756 0.900000
vt 0.236877 0.900000
vt 0.035086 0.900000
vt 0.969127 0.900000
vt 0.552632 1.000000
vt 0.342105 1.000000
vt 0.131579 1.000000
vt 0.921053 1.000000
vt 0.815789 1.000000
vt 0.863864 0.900000
vt 0.656927 0.800000
vt 0.547775 0.800000
vt 0.578947 0.700000
vt 0.661453 0.700000
vt 0.502079 0.700000
vt 0.447364 0.900000
vt 0.442512 0.800000
vt 0.684211 0.500000
vt 0.684211 0.400000
vt 0.736842 0.600000
vt 0.631579 0.500000
vt 0.631579 0.400000
vt 0.659355 0.300000
vt 0.789474 0.600000
vt 0.789474 0.500000
vt 0.760686 0.400000
vt 0.736842 0.500000
vt 0.765879 0.300000
vt 0.789474 0.500000
vt 0.760686 0.400000
vt 0.765879 0.300000
vt 0.500000 0.100000
vt 0.657899 0.100000
vt 0.342109 0.100000
vt 0.112957 0.100000
vt 1.000000 0.100000
vt 0.868386 0.100000
vt 0.552632 0.000000
vt 0.447368 0.000000
vt 0.236842 0.000000
vt 0.973684 0.000000
vt 0.763158 0.000000
vt 0.500000 0.100000
vt 0.447368 0.200000
vt 0.554092 0.300000
vt 0.473684 0.300000
vt 0.342109 0.100000
vt 0.398295 0.300000
vt 0.337249 0.200000
vt 0.294330 0.300000
vt 0.235249 0.200000
vt 0.578947 0.700000
vt 0.578947 0.540836
vt 0.502079 0.700000
vt 0.526316 0.600000
vt 0.526316 0.500000
vt 0.473684 0.600000
vt 0.473684 0.444478
s 0
usemtl Material.008
f 83/90/1 6/6/1 2/2/1
f 9/9/2 10/10/2 149/172/2 148/171/2
f 1/1/3 8/8/3 16/16/3 147/170/3
f 25/25/4 17/17/4 142/165/4 144/167/4
f 77/84/5 59/63/5 135/154/5 137/160/5
f 20/20/6 24/24/6 15/15/6
f 28/28/7 25/25/7 144/167/7 143/166/7
f 24/24/8 42/43/8 161/184/8 159/182/8
f 22/22/9 18/18/9 178/206/9 180/208/9
f 2/2/10 6/6/10 58/61/10 138/161/10
f 42/43/12 50/51/12 162/185/12 161/184/12
f 26/26/15 29/29/15 30/30/15
f 42/43/16 24/24/16 165/193/16 169/197/16
f 28/28/20 6/6/20 133/151/20 132/150/20
f 32/32/22 41/42/22 172/200/22 170/198/22
f 15/15/25 24/24/25 159/182/25 160/183/25
f 49/50/26 40/40/26 97/105/26 104/112/26
f 6/6/28 77/84/28 137/160/28 133/151/28
f 52/54/29 53/55/29 105/114/29 102/110/29
f 81/88/32 76/83/32 122/136/32 123/137/32
f 65/70/33 70/77/33 71/78/33
f 50/52/34 82/89/34 163/187/34 162/186/34
f 69/76/35 70/77/35 65/70/35
f 46/47/36 28/28/36 132/150/36 134/152/36
f 71/78/37 75/82/37 72/79/37
f 59/62/41 46/47/41 134/152/41 135/153/41
f 82/89/43 15/15/43 160/183/43 163/187/43
f 84/91/44 87/94/44 1/1/44
f 8/8/47 9/9/47 148/171/47 16/16/47
f 7/7/48 8/8/48 1/1/48 87/94/48
f 89/96/50 85/92/50 152/175/50 153/176/50
f 85/92/51 84/91/51 151/174/51 152/175/51
f 10/10/53 11/11/53 150/173/53 149/172/53
f 9/9/54 8/8/54 13/13/54
f 5/5/55 20/20/55 15/15/55
f 17/17/56 12/12/56 140/163/56 142/165/56
f 12/12/58 13/13/58 8/8/58 7/7/58
f 20/20/59 5/5/59 11/11/59 14/14/59
f 12/12/60 17/17/60 176/204/60 174/202/60
f 17/17/61 21/21/61 179/207/61 176/204/61
f 12/12/62 7/7/62 141/164/62 140/163/62
f 45/46/64 42/43/64 169/197/64 173/201/64
f 18/18/65 13/13/65 175/203/65 178/206/65
f 23/23/67 32/32/67 170/198/67 168/196/67
f 7/7/68 2/2/68 138/161/68 141/164/68
f 36/36/71 27/27/71 92/99/71 93/100/71
f 20/20/72 14/14/72 167/195/72 57/60/72
f 26/26/77 30/30/77 31/31/77
f 14/14/78 23/23/78 168/196/78 167/195/78
f 31/31/80 35/35/80 36/36/80
f 24/24/82 20/20/82 57/60/82 165/193/82
f 40/41/84 36/36/84 35/35/84 39/39/84
f 41/42/85 45/46/85 173/201/85 172/200/85
f 54/57/88 49/50/88 104/112/88 106/115/88
f 55/58/89 56/59/89 112/122/89 111/121/89
f 38/38/90 43/44/90 98/106/90 95/102/90
f 49/50/91 55/58/91 111/121/91 113/123/91
f 56/59/93 45/46/93 109/119/93 112/122/93
f 43/44/94 48/49/94 101/109/94 98/106/94
f 45/46/95 41/42/95 108/118/95 109/119/95
f 40/41/96 39/39/96 96/103/96 97/104/96
f 48/49/97 52/54/97 102/110/97 101/109/97
f 68/75/99 69/76/99 129/145/99 131/148/99
f 53/56/103 54/57/103 106/115/103 105/113/103
f 62/66/104 54/57/104 53/56/104
f 61/65/107 53/55/107 52/54/107
f 64/68/108 63/67/108 114/124/108 115/126/108
f 47/48/110 51/53/110 127/142/110 67/73/110
f 65/70/111 71/78/111 120/134/111 116/128/111
f 51/53/112 68/74/112 131/149/112 127/142/112
f 75/82/114 81/88/114 123/137/114 124/138/114
f 63/67/115 62/66/115 44/45/115 114/124/115
f 72/79/116 75/82/116 124/138/116 121/135/116
f 71/78/118 72/79/118 121/135/118 120/134/118
f 76/83/120 64/69/120 115/125/120 122/136/120
f 61/65/123 65/71/123 116/127/123 119/133/123
f 75/82/125 80/87/125 81/88/125
f 90/97/128 81/88/128 3/3/128 158/181/128
f 79/86/132 84/91/132 85/92/132
f 81/88/133 80/87/133 4/4/133 3/3/133
f 90/97/134 89/96/134 153/176/134 155/178/134
f 11/11/135 90/97/135 155/178/135 150/173/135
f 27/27/137 26/26/137 91/98/137 92/99/137
f 26/26/138 31/31/138 94/101/138 91/98/138
f 31/31/139 36/36/139 93/100/139 94/101/139
f 40/40/153 49/50/153 113/123/153 107/116/153
f 41/42/154 40/41/154 107/117/154 108/118/154
f 53/55/164 61/65/164 119/133/164 125/139/164
f 62/66/165 53/56/165 125/140/165 44/45/165
f 48/49/169 47/48/169 67/73/169 66/72/169
f 61/65/170 60/64/170 126/141/170 128/143/170
f 69/76/171 65/70/171 130/146/171 129/145/171
f 60/64/172 48/49/172 66/72/172 126/141/172
f 65/71/173 61/65/173 128/143/173 130/147/173
f 6/6/185 28/28/185 143/166/185 58/61/185
f 84/91/194 1/1/194 147/170/194 151/174/194
f 79/86/197 85/92/197 156/179/197 88/95/197
f 85/92/198 89/96/198 157/180/198 156/179/198
f 89/96/199 90/97/199 158/181/199 157/180/199
f 80/87/200 79/86/200 88/95/200 4/4/200
f 13/13/219 12/12/219 174/202/219 175/203/219
f 21/21/220 22/22/220 180/208/220 179/207/220
usemtl Material.009
f 18/18/11 22/22/11 19/19/11
f 21/21/13 26/26/13 22/22/13
f 25/25/14 29/29/14 17/17/14
f 25/25/17 28/28/17 37/37/17
f 37/37/18 33/33/18 29/29/18
f 36/36/19 41/42/19 32/32/19
f 37/37/21 43/44/21 33/33/21
f 46/47/23 47/48/23 37/37/23
f 45/46/24 50/51/24 42/43/24
f 47/48/27 48/49/27 43/44/27
f 60/64/30 61/65/30 52/54/30
f 59/62/31 68/74/31 51/53/31
f 74/81/38 73/80/38 79/86/38
f 76/83/39 81/88/39 86/93/39
f 74/81/40 79/86/40 75/82/40
f 82/89/42 86/93/42 15/15/42
f 86/93/45 5/5/45 15/15/45
f 2/2/46 7/7/46 87/94/46 83/90/46
f 5/5/49 86/93/49 90/97/49 11/11/49
f 13/13/52 19/19/52 10/10/52 9/9/52
f 14/14/57 11/11/57 10/10/57 19/19/57
f 13/13/63 18/18/63 19/19/63
f 23/23/66 14/14/66 19/19/66 22/22/66
f 32/32/69 23/23/69 22/22/69 27/27/69
f 29/29/70 26/26/70 21/21/70 17/17/70
f 22/22/73 26/26/73 27/27/73
f 33/33/74 34/34/74 30/30/74 29/29/74
f 25/25/75 37/37/75 29/29/75
f 27/27/76 36/36/76 32/32/76
f 37/37/79 28/28/79 46/47/79
f 35/35/81 31/31/81 30/30/81 34/34/81
f 39/39/83 35/35/83 34/34/83 38/38/83
f 43/44/86 38/38/86 34/34/86 33/33/86
f 36/36/87 40/41/87 41/42/87
f 37/37/92 47/48/92 43/44/92
f 45/46/98 56/59/98 50/51/98
f 51/53/100 47/48/100 46/47/100 59/62/100
f 49/50/101 54/57/101 55/58/101
f 52/54/102 48/49/102 60/64/102
f 63/67/105 55/58/105 54/57/105 62/66/105
f 63/67/106 64/68/106 56/59/106 55/58/106
f 56/59/109 64/68/109 50/51/109
f 82/89/113 50/52/113 64/69/113 76/83/113
f 74/81/117 70/77/117 69/76/117 73/80/117
f 74/81/119 75/82/119 71/78/119 70/77/119
f 78/85/121 68/75/121 59/63/121 77/84/121
f 73/80/122 69/76/122 68/75/122 78/85/122
f 87/94/124 73/80/124 78/85/124 83/90/124
f 76/83/126 86/93/126 82/89/126
f 75/82/127 79/86/127 80/87/127
f 87/94/129 84/91/129 79/86/129 73/80/129
f 83/90/130 78/85/130 77/84/130 6/6/130
f 86/93/131 81/88/131 90/97/131
f 39/39/148 38/38/148 95/102/148 96/103/148
usemtl Material.010
f 94/101/136 93/100/136 92/99/136 91/98/136
f 95/102/140 98/106/140 99/107/140
f 103/111/141 102/110/141 105/114/141
f 100/108/142 96/103/142 95/102/142 99/107/142
f 97/104/143 96/103/143 100/108/143
f 101/109/144 102/110/144 99/107/144 98/106/144
f 103/111/145 100/108/145 99/107/145 102/110/145
f 104/112/146 97/105/146 100/108/146 103/111/146
f 106/115/147 104/112/147 103/111/147 105/114/147
f 109/119/149 108/118/149 110/120/149
f 110/120/150 108/118/150 107/116/150
f 111/121/151 110/120/151 107/116/151 113/123/151
f 112/122/152 109/119/152 110/120/152 111/121/152
f 115/125/155 118/132/155 122/136/155
f 117/129/156 44/45/156 125/140/156 116/127/156
f 118/131/157 114/124/157 44/45/157 117/129/157
f 115/126/158 114/124/158 118/131/158
f 125/140/159 119/133/159 116/127/159
f 121/135/160 117/130/160 116/128/160 120/134/160
f 117/130/161 121/135/161 118/132/161
f 122/136/162 118/132/162 123/137/162
f 123/137/163 118/132/163 121/135/163 124/138/163
f 126/141/166 66/72/166 67/73/166 127/142/166
f 129/144/167 126/141/167 127/142/167 131/149/167
f 129/144/168 130/147/168 128/143/168 126/141/168
f 133/151/174 136/155/174 132/150/174
f 132/150/175 136/156/175 134/152/175
f 134/152/176 136/157/176 135/153/176
f 135/154/177 136/158/177 137/160/177
f 137/160/178 136/159/178 133/151/178
f 138/161/179 58/61/179 139/162/179
f 139/162/180 142/165/180 140/163/180
f 139/162/181 143/166/181 144/167/181
f 140/163/182 141/164/182 138/161/182 139/162/182
f 58/61/183 143/166/183 139/162/183
f 139/162/184 144/167/184 142/165/184
f 16/16/186 148/171/186 145/168/186
f 146/169/187 153/176/187 154/177/187 145/168/187
f 150/173/188 155/178/188 153/176/188 146/169/188
f 145/168/189 154/177/189 147/170/189 16/16/189
f 149/172/190 146/169/190 145/168/190 148/171/190
f 146/169/191 149/172/191 150/173/191
f 154/177/192 152/175/192 151/174/192 147/170/192
f 153/176/193 152/175/193 154/177/193
f 158/181/195 3/3/195 4/4/195 157/180/195
f 156/179/196 157/180/196 4/4/196 88/95/196
f 164/188/201 160/183/201 159/182/201
f 164/189/202 159/182/202 161/184/202
f 164/190/203 161/184/203 162/185/203
f 164/191/204 162/186/204 163/187/204
f 164/192/205 163/187/205 160/183/205
f 165/193/206 166/194/206 169/197/206
f 166/194/207 170/198/207 171/199/207
f 171/199/208 172/200/208 173/201/208
f 166/194/209 57/60/209 167/195/209 168/196/209
f 165/193/210 57/60/210 166/194/210
f 168/196/211 170/198/211 166/194/211
f 166/194/212 171/199/212 169/197/212
f 171/199/213 170/198/213 172/200/213
f 171/199/214 173/201/214 169/197/214
f 177/205/215 176/204/215 179/207/215
f 177/205/216 175/203/216 174/202/216 176/204/216
f 175/203/217 177/205/217 178/206/217
f 179/207/218 180/208/218 178/206/218 177/205/218
