# Blender 3.3.0
# www.blender.org
mtllib Planta01.mtl.mtl.mtl
o Cube
v -2.025357 -0.778078 3.018027
v -0.352690 3.610608 1.797066
v -1.534509 -0.778078 -1.774546
v -0.505170 3.610608 0.572599
v 1.592294 -0.778078 3.101178
v 1.184726 3.610608 1.757401
v 2.020850 -0.778078 -1.774546
v 1.287775 3.610608 0.427800
v 0.213998 -0.778078 -2.403855
v -2.284988 -0.778078 0.059163
v 0.038861 4.893549 1.786964
v 2.020850 -0.778078 0.059163
v 1.070784 4.893549 1.467380
v -1.015942 1.275147 1.799730
v -1.235344 1.275147 0.108149
v 1.325314 1.275147 0.123785
v 1.370617 1.275147 1.842689
v 0.168117 1.275147 2.303918
v 0.064850 1.275147 -0.809509
v 0.403386 7.571308 0.700464
v 0.352544 7.571308 0.571055
v 0.232333 7.571308 0.577739
v 0.211780 7.571308 0.744841
v 0.693073 4.893549 0.505977
v -0.303790 4.893549 0.916207
v 0.367287 6.411574 0.639221
v 0.519347 6.411574 1.026267
v -0.053720 6.411574 1.158993
v 0.007751 6.411574 0.659212
v -0.423365 3.610608 1.229519
v 0.202267 7.571308 0.668447
v -0.082173 6.411574 0.930508
v -0.643884 -0.778078 -2.095093
v 0.162419 3.610608 0.057794
v -0.573072 1.275147 -0.359273
v 0.780626 1.275147 2.068985
v 0.430413 3.610608 1.776862
v 0.317189 7.571308 0.742122
v 0.105171 4.893549 0.538664
v 0.261544 6.411574 1.150859
vn -0.9542 0.2747 0.1188
vn 0.5912 0.1134 -0.7985
vn 0.9966 0.0784 -0.0263
vn -0.3893 0.1116 0.9143
vn 0.8476 0.4132 -0.3330
vn 0.1763 0.1978 0.9643
vn -0.0426 0.3494 -0.9360
vn 0.4172 0.2842 0.8632
vn 0.9307 -0.0097 -0.3656
vn 0.9970 0.0060 0.0773
vn -0.9545 0.2712 0.1238
vn -0.8797 0.4669 0.0906
vn 0.9471 0.3208 -0.0000
vn -0.3682 0.5814 -0.7256
vn 0.3056 0.5213 0.7967
vn -0.1097 0.4290 0.8966
vn 0.9679 0.2388 0.0779
vn 0.3457 0.6482 -0.6785
vn -0.8336 0.4343 -0.3412
vn -0.9374 0.2207 0.2694
vn -0.9577 0.2618 0.1193
vn 0.1846 0.1424 0.9724
vn -0.6140 0.2725 -0.7408
vn -0.9423 0.1043 0.3181
vn 0.9067 0.2259 -0.3562
vn 0.3053 0.3476 0.8865
vn -0.6782 0.0148 -0.7347
vn -0.9398 0.1401 -0.3115
vn -0.9370 0.1596 -0.3106
vn -0.9850 0.1218 0.1227
vn 0.9915 0.1054 0.0768
vn -0.0554 0.0755 -0.9956
vn 0.0238 0.3834 0.9233
vn 0.1868 0.2542 -0.9489
vn 0.0258 -0.0000 0.9997
vn -0.0000 1.0000 -0.0000
vn -0.3488 0.6371 -0.6874
vn 0.0243 0.3313 0.9432
vn -0.5628 0.3204 -0.7620
vn 0.1789 0.0996 0.9788
vn -0.0554 -0.0593 -0.9967
vt 0.375000 0.000000
vt 0.375000 1.000000
vt 0.625000 1.000000
vt 0.625000 0.121060
vt 0.625000 0.877051
vt 0.375000 0.250000
vt 0.625000 0.250000
vt 0.375000 0.877051
vt 0.375000 0.750000
vt 0.625000 0.628940
vt 0.625000 0.750000
vt 0.375000 0.500000
vt 0.625000 0.500000
vt 0.625000 0.569175
vt 0.625000 0.372949
vt 0.375000 0.372949
vt 0.375000 0.121060
vt 0.625000 0.121060
vt 0.625000 0.812336
vt 0.625000 0.877051
vt 0.375000 0.628940
vt 0.625000 0.569175
vt 0.625000 0.750000
vt 0.625000 0.628940
vt 0.512986 0.000000
vt 0.512986 1.000000
vt 0.512986 0.121060
vt 0.512986 0.250000
vt 0.512986 0.628940
vt 0.512986 0.500000
vt 0.512986 0.750000
vt 0.512986 0.877051
vt 0.512986 0.372949
vt 0.625000 0.569176
vt 0.625000 0.750000
vt 0.625000 0.500000
vt 0.625000 0.372949
vt 0.625000 0.250000
vt 0.625000 0.312626
vt 0.625000 0.121060
vt 0.625000 0.877051
vt 0.625000 0.500000
vt 0.625000 0.372949
vt 0.625000 0.180825
vt 0.625000 0.250000
vt 0.625000 0.500000
vt 0.625000 0.372949
vt 0.625000 0.569176
vt 0.625000 0.750000
vt 0.625000 0.121060
vt 0.625000 0.877051
vt 0.625000 0.250000
vt 0.625000 0.312626
vt 0.625000 0.180824
vt 0.625000 0.180825
vt 0.625000 0.180825
vt 0.375000 0.312625
vt 0.625000 0.312626
vt 0.512986 0.312626
vt 0.512986 0.812336
vt 0.625000 0.812336
vt 0.625000 0.812336
vt 0.625000 0.312626
vt 0.625000 0.812336
s 0
f 15/27/1 2/4/1 30/54/1 4/7/1
f 19/33/2 8/13/2 16/30/2
f 16/29/3 6/11/3 17/31/3
f 18/32/4 2/3/4 14/26/4
f 8/13/5 24/42/5 13/22/5
f 36/60/6 37/61/6 2/5/6 18/32/6
f 35/59/7 34/58/7 8/15/7 19/33/7
f 40/64/8 27/49/8 20/35/8 38/62/8
f 27/48/9 26/46/9 21/36/9 20/34/9
f 16/30/10 8/14/10 6/10/10
f 14/25/11 2/4/11 15/27/11
f 1/1/12 14/25/12 15/27/12 10/17/12
f 7/12/13 16/29/13 12/21/13
f 33/57/14 35/59/14 19/33/14 9/16/14
f 5/9/15 17/31/15 36/60/15 18/32/15
f 5/8/16 18/32/16 14/26/16 1/2/16
f 12/21/17 16/29/17 17/31/17 5/9/17
f 9/16/18 19/33/18 16/30/18 7/12/18
f 10/17/19 15/28/19 3/6/19
f 30/54/20 2/4/20 11/18/20 25/44/20
f 32/56/21 28/50/21 23/40/21 31/55/21
f 37/61/22 6/11/22 13/23/22 11/19/22
f 34/58/23 4/7/23 25/45/23 39/63/23
f 25/44/24 11/18/24 28/50/24 32/56/24
f 13/22/25 24/42/25 26/46/25 27/48/25
f 11/19/26 13/23/26 27/49/26 40/64/26
f 39/63/27 25/45/27 29/53/27
f 25/44/28 32/56/28 29/52/28
f 29/52/29 32/56/29 31/55/29 22/38/29
f 4/7/30 30/54/30 25/45/30
f 6/10/31 8/14/31 13/24/31
f 24/43/32 39/63/32 29/53/32 26/47/32
f 11/19/33 40/64/33 28/51/33
f 8/15/34 34/58/34 39/63/34 24/43/34
f 2/5/35 37/61/35 11/20/35
f 38/62/36 20/35/36 21/36/36 22/39/36 31/55/36 23/40/36
f 3/6/37 15/28/37 35/59/37 33/57/37
f 28/51/38 40/64/38 38/62/38 23/41/38
f 15/28/39 4/7/39 34/58/39 35/59/39
f 17/31/40 6/11/40 37/61/40 36/60/40
f 26/47/41 29/53/41 22/39/41 21/37/41
