# Blender 3.3.0
# www.blender.org
mtllib Tierrita.mtl
o Icosphere
v 0.238981 0.447220 0.794840
v -0.723607 0.447220 0.525725
v -0.723607 0.447220 -0.525725
v 0.276388 0.447220 -0.850649
v 0.894426 0.447216 0.000000
v 1.222490 0.000000 0.397205
v 1.222490 0.000000 -0.397205
v 0.000000 0.000000 1.285400
v 0.755540 0.000000 1.039910
v -1.222490 0.000000 0.397205
v -0.755540 0.000000 1.039910
v -0.755540 0.000000 -1.039910
v -1.222490 0.000000 -0.397205
v 0.755540 0.000000 -1.039910
v 0.000000 0.000000 -1.285400
v 0.688189 0.525736 0.499997
v -0.273830 0.527112 0.760792
v -0.850648 0.525736 0.000000
v -0.262869 0.525738 -0.809012
v 0.688189 0.525736 -0.499997
v 0.224756 0.850654 0.426904
v 0.468775 0.850652 -0.121688
v -0.409288 0.850654 0.214620
v -0.346794 0.850654 -0.309443
v 0.162456 0.850654 -0.499995
vn 0.3402 0.6402 0.6888
vn -0.4118 0.7356 0.5379
vn -0.6314 0.7300 -0.2616
vn 0.0385 0.6617 -0.7488
vn 0.7033 0.6871 -0.1822
vn 0.4837 0.7827 -0.3917
vn 0.4089 0.6617 -0.6284
vn -0.2086 0.8035 -0.5576
vn -0.4522 0.7110 -0.5384
vn -0.0000 1.0000 -0.0000
vn -0.5698 0.8189 -0.0680
vn -0.6517 0.7111 0.2637
vn -0.1788 0.8264 0.5339
vn 0.0561 0.6739 0.7367
vn 0.5324 0.8127 0.2368
vn 0.6560 0.7388 0.1546
vn 0.7071 0.6826 -0.1845
vn 0.6605 0.5774 -0.4799
vn 0.3940 0.6826 -0.6155
vn 0.0431 0.6826 -0.7295
vn -0.2523 0.5774 -0.7765
vn -0.4637 0.6826 -0.5649
vn -0.6805 0.6826 -0.2664
vn -0.8164 0.5774 -0.0000
vn -0.6805 0.6826 0.2664
vn -0.4259 0.6956 0.5786
vn -0.2430 0.6180 0.7477
vn 0.0665 0.7210 0.6897
vn 0.3012 0.7017 0.6457
vn 0.6605 0.5774 0.4799
vn 0.7071 0.6826 0.1845
vn 0.2492 0.5915 -0.7669
vn -0.6523 0.5915 -0.4739
vn -0.6523 0.5915 0.4739
vn 0.2322 0.6598 0.7146
vn 0.8063 0.5915 -0.0000
vt 0.181819 0.314921
vt 0.000000 0.314921
vt 0.909091 0.314921
vt 0.727273 0.314921
vt 0.545455 0.314921
vt 0.363637 0.314921
vt 0.318182 0.236191
vt 0.409092 0.236191
vt 0.136365 0.236191
vt 0.227273 0.236191
vt 0.863636 0.236191
vt 0.045455 0.236191
vt 0.954545 0.236191
vt 0.681818 0.236191
vt 0.772727 0.236191
vt 0.500000 0.236191
vt 0.590909 0.236191
vt 0.272728 0.314921
vt 0.090910 0.314921
vt 0.818182 0.314921
vt 0.636364 0.314921
vt 0.454546 0.314921
vt 0.136365 0.393651
vt 0.227273 0.393651
vt 0.409092 0.393651
vt 0.318182 0.393651
vt 0.863636 0.393651
vt 0.045455 0.393651
vt 0.681818 0.393651
vt 0.772727 0.393651
vt 0.500000 0.393651
vt 0.590909 0.393651
s 0
f 1/1/1 16/18/1 21/24/1
f 2/2/2 17/19/2 23/28/2
f 3/4/3 18/20/3 24/30/3
f 4/5/4 19/21/4 25/32/4
f 5/6/5 20/22/5 22/25/5
f 22/25/6 20/22/6 25/31/6
f 20/22/7 4/5/7 25/31/7
f 25/32/8 19/21/8 24/29/8
f 19/21/9 3/4/9 24/29/9
f 21/24/10 22/25/10 25/32/10 24/30/10 23/28/10
f 24/30/11 18/20/11 23/27/11
f 18/20/12 2/3/12 23/27/12
f 23/28/13 17/19/13 21/23/13
f 17/19/14 1/1/14 21/23/14
f 21/24/15 16/18/15 22/26/15
f 16/18/16 5/6/16 22/26/16
f 7/8/17 20/22/17 5/6/17
f 7/8/18 14/16/18 20/22/18
f 14/16/19 4/5/19 20/22/19
f 15/17/20 19/21/20 4/5/20
f 15/17/21 12/14/21 19/21/21
f 12/14/22 3/4/22 19/21/22
f 13/15/23 18/20/23 3/4/23
f 13/15/24 10/11/24 18/20/24
f 10/11/25 2/3/25 18/20/25
f 11/12/26 17/19/26 2/2/26
f 11/12/27 8/9/27 17/19/27
f 8/9/28 1/1/28 17/19/28
f 9/10/29 16/18/29 1/1/29
f 9/10/30 6/7/30 16/18/30
f 6/7/31 5/6/31 16/18/31
f 14/16/32 15/17/32 4/5/32
f 12/14/33 13/15/33 3/4/33
f 10/11/34 11/13/34 2/3/34
f 8/9/35 9/10/35 1/1/35
f 6/7/36 7/8/36 5/6/36
