# Blender 3.3.0
# www.blender.org
mtllib Planta01.mtl
o Plane.001
v -4.853566 2.641285 -1.458820
v -4.855802 2.641285 -1.517947
v -4.897405 2.683328 -1.516374
v -4.895170 2.683329 -1.457247
v -5.311668 1.996149 -1.361068
v -5.264148 2.048981 -1.602022
v -5.427123 2.244149 -1.596540
v -5.515245 2.188601 -1.367072
v -5.182122 -0.109788 -1.194171
v -5.182119 -0.109788 -1.980943
v -5.968638 -0.089850 -1.980947
v -5.968641 -0.089850 -1.194175
v -6.153763 2.428820 -1.800754
v -6.128252 2.428820 -1.864948
v -6.087877 2.482523 -1.848902
v -6.113388 2.482523 -1.784709
v -5.738282 2.095600 -1.051033
v -5.796251 2.095600 -1.078019
v -5.787673 2.156226 -1.096445
v -5.729704 2.156226 -1.069458
v -5.117171 2.304203 -1.401604
v -5.116379 2.309581 -1.557189
v -5.227529 2.421839 -1.552292
v -5.228956 2.414207 -1.399197
v -4.996312 2.454053 -1.421717
v -5.000942 2.454053 -1.544165
v -5.087101 2.541123 -1.540908
v -5.082472 2.541123 -1.418459
v -4.907364 2.561839 -1.438684
v -4.910966 2.561839 -1.533963
v -4.978008 2.629589 -1.531428
v -4.974406 2.629589 -1.436149
v -5.170741 0.687075 -1.201159
v -5.173197 0.691370 -1.971746
v -5.943599 0.706876 -1.973402
v -5.943107 0.711989 -1.201539
v -5.318674 1.466330 -1.358794
v -5.352732 1.577302 -1.787243
v -5.790075 1.489925 -1.812245
v -5.787401 1.622222 -1.347236
v -5.922126 2.050480 -1.606625
v -5.862770 2.021424 -1.807402
v -5.664735 2.165680 -1.762960
v -5.782099 2.234941 -1.548627
v -6.069237 2.300097 -1.731510
v -6.023237 2.298168 -1.853367
v -5.942001 2.395946 -1.823910
v -5.991540 2.401732 -1.702986
v -5.546597 1.914939 -1.275027
v -5.753875 1.913591 -1.282683
v -5.737226 2.061563 -1.383910
v -5.674576 2.035737 -1.124333
v -5.782962 2.029425 -1.172286
v -5.765591 2.147455 -1.208016
v -5.657848 2.151635 -1.159492
v -5.610600 1.968872 -1.234127
v -5.724486 2.099025 -1.332157
v -5.586270 2.135723 -1.283118
v -5.566424 2.136743 -1.317460
v -5.586233 1.508707 -1.881944
v -5.246346 1.486280 -1.565637
v -5.802821 1.787482 -1.794063
v -5.086658 -0.175256 -1.587557
v -5.765900 2.074565 -1.828459
v -5.512012 1.905584 -1.793283
v -5.576975 -0.162827 -2.078036
v -5.310212 1.856507 -1.670126
v -6.067297 -0.150397 -1.587561
v -5.245664 1.995718 -1.492085
v -5.333217 1.746215 -1.374442
v -5.446879 1.922207 -1.299079
v -5.576980 -0.162827 -1.097082
v -5.628037 1.770635 -1.283382
v -5.529534 1.487264 -1.275601
v -5.869491 1.508981 -1.604564
v -5.865240 1.861477 -1.509442
v -4.895631 2.692237 -1.486835
v -5.917531 2.010021 -1.711986
v -5.720936 2.264011 -1.652268
v -5.759282 1.816834 -1.305749
v -5.878148 2.141658 -1.554060
v -5.340446 2.151564 -1.636265
v -5.527702 2.179866 -1.667664
v -4.872043 2.667046 -1.523205
v -5.591658 1.936359 -1.260153
v -5.481620 2.265835 -1.501735
v -5.384697 2.119306 -1.334053
v -5.513561 2.046813 -1.297000
v -4.845775 2.641854 -1.488720
v -5.650462 2.147689 -1.375910
v -5.792670 1.901720 -1.374057
v -5.760007 2.124868 -1.445368
v -4.869364 2.667046 -1.452350
v -5.648893 2.221114 -1.472425
v -5.723102 2.063884 -1.356835
v -5.572045 2.060920 -1.249473
v -5.687273 1.908205 -1.249174
v -5.765571 1.997685 -1.316569
v -5.650342 2.150400 -1.316869
v -6.143409 2.462269 -1.790069
v -6.104642 2.493868 -1.818399
v -6.113388 2.462269 -1.865611
v -6.152155 2.430670 -1.837281
v -5.731970 2.128286 -1.051497
v -5.760935 2.163840 -1.078128
v -5.799960 2.128286 -1.083149
v -5.770995 2.092732 -1.056517
v -5.208359 2.179928 -1.388489
v -5.193451 2.197529 -1.569340
v -5.095875 2.286056 -1.480081
v -5.324224 2.333335 -1.562829
v -5.171746 2.366930 -1.583679
v -5.344524 2.309460 -1.389555
v -5.249143 2.438860 -1.475059
v -5.173272 2.357985 -1.371461
v -5.048476 2.390419 -1.412134
v -5.052855 2.391091 -1.550044
v -4.982472 2.437728 -1.483552
v -5.150103 2.489358 -1.546280
v -5.044889 2.497588 -1.565496
v -5.145802 2.488404 -1.408682
v -5.100941 2.557449 -1.479073
v -5.038524 2.497588 -1.397129
v -4.950217 2.509911 -1.430510
v -4.954314 2.509911 -1.538878
v -4.896595 2.549136 -1.486799
v -5.030566 2.586968 -1.535995
v -4.945162 2.595714 -1.550560
v -5.026469 2.586968 -1.427627
v -4.988777 2.642292 -1.483314
v -4.940209 2.595714 -1.419552
v -4.870391 2.609057 -1.447410
v -4.873440 2.609057 -1.528054
v -4.930184 2.666400 -1.525908
v -4.927135 2.666401 -1.445265
v -5.110674 0.204272 -1.130476
v -5.110977 0.204809 -2.044362
v -5.027334 0.685433 -1.586262
v -6.024578 0.227466 -2.044573
v -5.558674 0.699046 -2.117178
v -6.024520 0.228105 -1.130527
v -6.087987 0.713222 -1.587661
v -5.556647 0.699609 -1.056744
v -5.258100 1.118820 -1.295440
v -5.267852 1.139718 -1.871184
v -5.844644 1.135640 -1.877847
v -5.842833 1.158693 -1.295503
v -5.994350 2.193404 -1.677717
v -6.061137 2.280437 -1.797875
v -5.941857 2.185190 -1.830735
v -5.973662 2.346333 -1.861399
v -5.827555 2.301390 -1.795866
v -5.951871 2.417534 -1.758012
v -5.894594 2.323160 -1.644009
v -6.039346 2.351638 -1.694487
v -6.128483 2.380911 -1.773529
v -6.091679 2.380670 -1.866904
v -6.032374 2.458266 -1.843690
v -6.069622 2.458989 -1.750431
v -5.638173 2.002301 -1.184315
v -5.731966 2.010650 -1.141663
v -5.764901 1.980402 -1.235093
v -5.794538 2.087457 -1.199196
v -5.741959 2.128492 -1.278905
v -5.708523 2.171476 -1.190400
v -5.617392 2.143005 -1.226709
v -5.645950 2.094669 -1.132868
v -5.711375 2.069301 -1.074201
v -5.796068 2.068512 -1.113316
v -5.783369 2.157672 -1.140396
v -5.698756 2.158195 -1.101210
v -5.580329 -0.295054 -1.587559
v -4.937968 2.495463 -1.485234
v -5.096325 2.439259 -1.384579
v -5.166194 2.507279 -1.476804
v -5.102293 2.440377 -1.573991
v -5.032424 2.372356 -1.481765
v -5.277301 2.243196 -1.356833
v -5.358069 2.346870 -1.477189
v -5.414859 2.024285 -1.709664
v -5.256148 2.268955 -1.598512
v -5.175611 2.164084 -1.480233
v -5.482656 1.738969 -1.299466
v -5.868541 1.792720 -1.654692
v -5.772233 2.133265 -1.053858
v -6.144303 2.476114 -1.834160
v -5.272890 1.772432 -1.527457
v -5.662636 1.825660 -1.837259
v -5.450675 2.033080 -1.306104
v -5.550700 2.051495 -1.280083
v -5.677438 1.838846 -1.272179
v -5.770815 1.929040 -1.339818
v -5.640878 2.138806 -1.346579
v -5.686153 2.174837 -1.423587
v -4.860667 2.676991 -1.488157
v -5.827535 1.999810 -1.457860
v -5.600387 2.239844 -1.571828
v -4.993208 2.548440 -1.557756
v -5.042814 2.601417 -1.481271
v -4.987575 2.548440 -1.408749
v -4.860869 2.598838 -1.488149
v -4.901909 2.638196 -1.542028
v -4.938763 2.677554 -1.485204
v -4.897723 2.638196 -1.431326
v -4.936802 0.193898 -1.587394
v -5.567969 0.209916 -2.218695
v -6.198888 0.226004 -1.587574
v -5.567721 0.209986 -0.956274
v -5.154000 1.124344 -1.582020
v -5.558525 1.136486 -1.982576
v -5.952142 1.147856 -1.589222
v -5.547719 1.135918 -1.187431
v -5.987581 2.166986 -1.760189
v -5.874557 2.239022 -1.842157
v -5.842816 2.337765 -1.713544
v -5.956244 2.259818 -1.633487
v -6.121750 2.367053 -1.824794
v -6.055929 2.420027 -1.872844
v -6.040823 2.473665 -1.793078
v -6.106644 2.420691 -1.745027
v -5.705636 1.964277 -1.201622
v -5.776989 2.051033 -1.266653
v -5.675576 2.162823 -1.260889
v -5.604223 2.076067 -1.195858
v -5.756353 2.052707 -1.088134
v -5.805638 2.113203 -1.133449
v -5.739020 2.174601 -1.125162
v -5.689735 2.114105 -1.079847
vn -0.2581 -0.9373 0.2342
vn -0.2580 -0.9373 -0.2342
vn 0.2102 -0.9492 -0.2342
vn 0.2102 -0.9492 0.2342
vn 0.7548 -0.5725 0.3201
vn 0.7285 -0.5725 -0.3762
vn -0.1606 0.3020 0.9397
vn 0.3450 -0.1696 0.9232
vn 0.3645 -0.1622 0.9170
vn -0.1289 0.3287 0.9356
vn -0.6057 0.7248 -0.3283
vn -0.5872 0.7140 0.3813
vn -0.5586 0.7416 0.3714
vn -0.5832 0.7437 -0.3269
vn 0.2977 -0.1531 -0.9423
vn -0.2075 0.3192 -0.9247
vn -0.1945 0.3324 -0.9229
vn 0.2984 -0.1589 -0.9411
vn 0.7609 -0.5595 0.3287
vn 0.7464 -0.5527 -0.3708
vn 0.7317 -0.5688 -0.3756
vn 0.7561 -0.5702 0.3211
vn -0.1096 0.2998 0.9477
vn 0.3132 -0.0598 0.9478
vn 0.3195 -0.1524 0.9352
vn -0.1800 0.2842 0.9417
vn -0.4867 0.7813 -0.3908
vn -0.5317 0.7714 0.3498
vn -0.5997 0.6992 0.3892
vn -0.6081 0.7167 -0.3415
vn 0.2138 0.4563 -0.8637
vn 0.5581 0.1508 -0.8160
vn 0.5464 0.2164 -0.8091
vn 0.4021 0.4002 -0.8235
vn 0.4145 -0.0006 -0.9100
vn -0.0656 0.3788 -0.9231
vn -0.1968 0.3173 -0.9277
vn 0.3134 -0.1199 -0.9420
vn 0.8304 -0.3913 0.3967
vn 0.8835 -0.3484 -0.3130
vn 0.7851 -0.5074 -0.3551
vn 0.7778 -0.5214 0.3511
vn 0.1532 -0.0811 0.9849
vn -0.1460 -0.0236 0.9890
vn 0.4030 0.0434 0.9142
vn 0.4522 -0.0880 0.8876
vn -0.9716 -0.2188 0.0903
vn -0.8523 -0.2754 -0.4446
vn -0.9228 -0.0398 -0.3831
vn -0.9722 -0.0500 0.2288
vn -0.0211 0.5883 0.8084
vn -0.6050 0.5883 0.5365
vn -0.6914 -0.0224 0.7221
vn -0.1075 -0.0224 0.9940
vn -0.5172 0.8282 0.2160
vn -0.2278 0.8282 -0.5121
vn -0.6858 0.2191 -0.6941
vn -0.9751 0.2191 0.0340
vn 0.9582 -0.1024 -0.2673
vn 0.9099 -0.1342 0.3925
vn 0.9347 0.0539 0.3515
vn 0.9387 0.0664 -0.3384
vn -0.2294 -0.0867 -0.9695
vn 0.2683 0.2072 -0.9408
vn 0.2803 0.1591 -0.9467
vn -0.3189 0.0506 -0.9464
vn 0.0501 0.3825 0.9226
vn 0.2025 0.0921 0.9750
vn 0.3776 0.0450 0.9249
vn 0.3937 0.4177 0.8188
vn 0.8087 0.3583 0.4665
vn 0.7380 -0.1721 0.6525
vn 0.3729 0.0455 0.9268
vn 0.1160 -0.1628 0.9798
vn 0.2137 -0.3740 0.9025
vn -0.3739 -0.2571 0.8911
vn -0.2354 -0.2093 0.9491
vn -0.8794 0.0361 0.4747
vn -0.9598 -0.0166 0.2801
vn -0.8428 0.2512 -0.4760
vn -0.8739 0.3378 0.3495
vn -0.6646 0.6570 0.3558
vn -0.4177 0.6463 -0.6386
vn 0.1594 0.9832 -0.0894
vn -0.2449 0.8265 0.5069
vn -0.5382 0.4843 0.6898
vn -0.2549 0.7716 0.5828
vn -0.4135 0.6552 0.6322
vn 0.8692 0.4054 0.2830
vn 0.8454 0.4054 -0.3478
vn 0.4015 0.8539 -0.3310
vn 0.4254 0.8539 0.2998
vn -0.5939 0.3870 0.7053
vn -0.8353 0.0487 0.5477
vn -0.8857 0.0413 0.4625
vn -0.7194 0.3048 0.6241
vn -0.1937 0.9297 0.3132
vn -0.0849 0.8941 -0.4397
vn 0.3299 0.8373 -0.4360
vn 0.0032 0.9730 0.2308
vn 0.2983 -0.1599 -0.9410
vn -0.1916 0.3352 -0.9225
vn -0.5780 0.7478 -0.3268
vn -0.5516 0.7478 0.3695
vn -0.5517 0.7478 0.3695
vn -0.1214 0.3352 0.9343
vn 0.3685 -0.1599 0.9158
vn 0.7740 -0.5475 0.3180
vn 0.7478 -0.5475 -0.3755
vn 0.8789 -0.3399 -0.3347
vn 0.9016 -0.3399 0.2674
vn 0.3197 -0.1370 -0.9376
vn -0.1683 0.3562 -0.9191
vn 0.0350 0.4912 -0.8703
vn 0.4587 0.0631 -0.8864
vn -0.5528 0.7668 -0.3264
vn -0.5265 0.7668 0.3672
vn -0.3196 0.8942 0.3136
vn -0.3423 0.8942 -0.2886
vn -0.0984 0.3562 0.9292
vn 0.3896 -0.1370 0.9108
vn 0.5243 0.0631 0.8492
vn 0.1006 0.4912 0.8652
vn 0.8949 -0.3190 0.3119
vn 0.8951 -0.3182 -0.3124
vn 0.9223 0.1702 -0.3470
vn 0.9234 0.1674 0.3455
vn 0.3047 -0.3036 -0.9028
vn -0.3194 -0.2889 -0.9025
vn -0.3414 0.1957 -0.9193
vn 0.3513 0.1829 -0.9182
vn -0.9096 -0.2745 -0.3120
vn -0.9096 -0.2742 0.3122
vn -0.9151 0.2066 0.3463
vn -0.9147 0.2071 -0.3471
vn -0.3196 -0.2887 0.9025
vn 0.3043 -0.3045 0.9026
vn 0.3512 0.1794 0.9189
vn -0.3410 0.1944 0.9198
vn 0.9062 0.2575 0.3354
vn 0.9026 0.2652 -0.3391
vn 0.9080 0.2440 -0.3407
vn 0.9150 0.2196 0.3385
vn 0.3430 0.2750 -0.8982
vn -0.3311 0.2775 -0.9019
vn -0.3349 0.2219 -0.9157
vn 0.3238 0.2528 -0.9117
vn -0.8965 0.2811 -0.3426
vn -0.9012 0.2775 0.3330
vn -0.9410 0.1808 0.2861
vn -0.9127 0.2001 -0.3563
vn -0.3226 0.2707 0.9070
vn 0.3477 0.2645 0.8995
vn 0.3627 0.2184 0.9059
vn -0.2553 0.1860 0.9488
vn -0.8417 -0.5338 0.0812
vn -0.6051 -0.5638 -0.5622
vn -0.7246 -0.4528 -0.5195
vn -0.9130 -0.3987 0.0867
vn -0.0003 -0.1870 -0.9824
vn 0.4653 0.2970 -0.8338
vn 0.4149 0.2389 -0.8779
vn -0.0890 -0.1618 -0.9828
vn 0.6409 0.7456 -0.1829
vn 0.3765 0.7977 0.4711
vn 0.3107 0.8537 0.4179
vn 0.6272 0.7283 -0.2761
vn -0.2373 0.3790 0.8944
vn -0.6739 -0.1143 0.7299
vn -0.7352 -0.0329 0.6771
vn -0.3583 0.3883 0.8490
vn -0.8912 -0.4531 -0.0227
vn -0.6657 -0.4547 -0.5916
vn -0.5722 -0.5762 -0.5836
vn -0.8228 -0.5654 0.0574
vn -0.1102 -0.0136 -0.9938
vn 0.2534 0.4563 -0.8530
vn 0.4313 0.3573 -0.8284
vn 0.0002 -0.1578 -0.9875
vn 0.3835 0.9059 -0.1795
vn 0.1555 0.9091 0.3864
vn 0.3188 0.8180 0.4787
vn 0.5780 0.7996 -0.1630
vn -0.4035 0.4626 0.7894
vn -0.7642 -0.0091 0.6449
vn -0.6815 -0.1307 0.7201
vn -0.2592 0.3879 0.8845
vn 0.2126 -0.7586 0.6159
vn -0.4865 -0.7663 0.4196
vn -0.4506 -0.6114 0.6505
vn 0.2764 -0.6390 0.7178
vn -0.9666 -0.2295 -0.1137
vn -0.8561 0.3386 -0.3904
vn -0.8389 0.2849 -0.4637
vn -0.9863 -0.1628 -0.0264
vn -0.3327 0.8916 -0.3073
vn 0.3157 0.9476 0.0494
vn 0.2845 0.9583 -0.0254
vn -0.3816 0.8033 -0.4573
vn 0.8187 0.3695 0.4395
vn 0.7581 -0.2675 0.5948
vn 0.7829 -0.2500 0.5697
vn 0.8410 0.3502 0.4124
vn -0.0283 -0.6471 0.7619
vn -0.5599 -0.6438 0.5217
vn -0.5232 -0.7643 0.3769
vn 0.1198 -0.7671 0.6303
vn -0.9838 -0.1277 0.1260
vn -0.9066 0.4194 -0.0475
vn -0.8752 0.3848 -0.2933
vn -0.9705 -0.2311 -0.0683
vn -0.3383 0.9406 0.0287
vn 0.1890 0.9415 0.2790
vn 0.3121 0.9441 0.1064
vn -0.3085 0.9288 -0.2054
vn 0.6166 0.4210 0.6652
vn 0.5423 -0.1302 0.8301
vn 0.6982 -0.2465 0.6721
vn 0.7731 0.3955 0.4959
s 0
usemtl Material.007
f 12//1 68//1 172//1 72//1
f 68//2 11//2 66//2 172//2
f 172//3 66//3 10//3 63//3
f 72//4 172//4 63//4 9//4
f 25//5 118//5 173//5 124//5
f 118//6 26//6 125//6 173//6
f 173//6 125//6 30//6 126//6
f 124//5 173//5 126//5 29//5
f 24//7 115//7 174//7 121//7
f 115//8 21//8 116//8 174//8
f 174//9 116//9 25//9 123//9
f 121//10 174//10 123//10 28//10
f 23//11 114//11 175//11 119//11
f 114//12 24//12 121//12 175//12
f 175//13 121//13 28//13 122//13
f 119//14 175//14 122//14 27//14
f 22//15 112//15 176//15 117//15
f 112//16 23//16 119//16 176//16
f 176//17 119//17 27//17 120//17
f 117//18 176//18 120//18 26//18
f 21//19 110//19 177//19 116//19
f 110//20 22//20 117//20 177//20
f 177//21 117//21 26//21 118//21
f 116//22 177//22 118//22 25//22
f 8//23 87//23 178//23 113//23
f 87//24 5//24 108//24 178//24
f 178//25 108//25 21//25 115//25
f 113//26 178//26 115//26 24//26
f 7//27 86//27 179//27 111//27
f 86//28 8//28 113//28 179//28
f 179//29 113//29 24//29 114//29
f 111//30 179//30 114//30 23//30
f 7//31 82//31 180//31 83//31
f 82//32 6//32 67//32 180//32
f 180//33 67//33 38//33 65//33
f 83//34 180//34 65//34 43//34
f 6//35 82//35 181//35 109//35
f 82//36 7//36 111//36 181//36
f 181//37 111//37 23//37 112//37
f 109//38 181//38 112//38 22//38
f 5//39 69//39 182//39 108//39
f 69//40 6//40 109//40 182//40
f 182//41 109//41 22//41 110//41
f 108//42 182//42 110//42 21//42
f 49//43 73//43 183//43 71//43
f 73//44 40//44 74//44 183//44
f 183//45 74//45 37//45 70//45
f 71//46 183//46 70//46 5//46
f 41//47 78//47 184//47 76//47
f 78//48 42//48 62//48 184//48
f 184//49 62//49 39//49 75//49
f 76//50 184//50 75//50 40//50
f 20//51 105//51 185//51 104//51
f 105//52 19//52 106//52 185//52
f 185//53 106//53 18//53 107//53
f 104//54 185//54 107//54 17//54
f 16//55 101//55 186//55 100//55
f 101//56 15//56 102//56 186//56
f 186//57 102//57 14//57 103//57
f 100//58 186//58 103//58 13//58
f 6//59 69//59 187//59 67//59
f 69//60 5//60 70//60 187//60
f 187//61 70//61 37//61 61//61
f 67//62 187//62 61//62 38//62
f 42//63 64//63 188//63 62//63
f 64//64 43//64 65//64 188//64
f 188//65 65//65 38//65 60//65
f 62//66 188//66 60//66 39//66
f 8//67 88//67 189//67 87//67
f 49//68 71//68 189//68 88//68
f 5//69 87//69 189//69 71//69
f 8//70 59//70 190//70 88//70
f 59//71 58//71 96//71 190//71
f 190//72 96//72 56//72 85//72
f 88//73 190//73 85//73 49//73
f 49//74 85//74 191//74 73//74
f 85//75 56//75 97//75 191//75
f 191//76 97//76 50//76 80//76
f 73//77 191//77 80//77 40//77
f 40//78 80//78 192//78 91//78
f 80//79 50//79 98//79 192//79
f 192//80 98//80 57//80 95//80
f 91//81 192//81 95//81 51//81
f 51//82 95//82 193//82 90//82
f 95//83 57//83 99//83 193//83
f 193//84 99//84 58//84 59//84
f 90//85 193//85 59//85 8//85
f 51//86 90//86 194//86 92//86
f 8//87 94//87 194//87 90//87
f 44//88 92//88 194//88 94//88
f 1//89 89//89 195//89 93//89
f 89//90 2//90 84//90 195//90
f 195//91 84//91 3//91 77//91
f 93//92 195//92 77//92 4//92
f 44//93 81//93 196//93 92//93
f 81//94 41//94 76//94 196//94
f 196//95 76//95 40//95 91//95
f 92//96 196//96 91//96 51//96
f 8//97 86//97 197//97 94//97
f 86//98 7//98 83//98 197//98
f 197//99 83//99 43//99 79//99
f 94//100 197//100 79//100 44//100
f 26//101 120//101 198//101 125//101
f 120//102 27//102 127//102 198//102
f 198//102 127//102 31//102 128//102
f 125//101 198//101 128//101 30//101
f 27//103 122//103 199//103 127//103
f 122//104 28//104 129//104 199//104
f 199//105 129//105 32//105 130//105
f 127//103 199//103 130//103 31//103
f 28//106 123//106 200//106 129//106
f 123//107 25//107 124//107 200//107
f 200//107 124//107 29//107 131//107
f 129//106 200//106 131//106 32//106
f 29//108 126//108 201//108 132//108
f 126//109 30//109 133//109 201//109
f 201//110 133//110 2//110 89//110
f 132//111 201//111 89//111 1//111
f 30//112 128//112 202//112 133//112
f 128//113 31//113 134//113 202//113
f 202//114 134//114 3//114 84//114
f 133//115 202//115 84//115 2//115
f 31//116 130//116 203//116 134//116
f 130//117 32//117 135//117 203//117
f 203//118 135//118 4//118 77//118
f 134//119 203//119 77//119 3//119
f 32//120 131//120 204//120 135//120
f 131//121 29//121 132//121 204//121
f 204//122 132//122 1//122 93//122
f 135//123 204//123 93//123 4//123
f 9//124 63//124 205//124 136//124
f 63//125 10//125 137//125 205//125
f 205//126 137//126 34//126 138//126
f 136//127 205//127 138//127 33//127
f 10//128 66//128 206//128 137//128
f 66//129 11//129 139//129 206//129
f 206//130 139//130 35//130 140//130
f 137//131 206//131 140//131 34//131
f 11//132 68//132 207//132 139//132
f 68//133 12//133 141//133 207//133
f 207//134 141//134 36//134 142//134
f 139//135 207//135 142//135 35//135
f 12//136 72//136 208//136 141//136
f 72//137 9//137 136//137 208//137
f 208//138 136//138 33//138 143//138
f 141//139 208//139 143//139 36//139
f 33//140 138//140 209//140 144//140
f 138//141 34//141 145//141 209//141
f 209//142 145//142 38//142 61//142
f 144//143 209//143 61//143 37//143
f 34//144 140//144 210//144 145//144
f 140//145 35//145 146//145 210//145
f 210//146 146//146 39//146 60//146
f 145//147 210//147 60//147 38//147
f 35//148 142//148 211//148 146//148
f 142//149 36//149 147//149 211//149
f 211//150 147//150 40//150 75//150
f 146//151 211//151 75//151 39//151
f 36//152 143//152 212//152 147//152
f 143//153 33//153 144//153 212//153
f 212//154 144//154 37//154 74//154
f 147//155 212//155 74//155 40//155
f 45//156 149//156 213//156 148//156
f 149//157 46//157 150//157 213//157
f 213//158 150//158 42//158 78//158
f 148//159 213//159 78//159 41//159
f 46//160 151//160 214//160 150//160
f 151//161 47//161 152//161 214//161
f 214//162 152//162 43//162 64//162
f 150//163 214//163 64//163 42//163
f 47//164 153//164 215//164 152//164
f 153//165 48//165 154//165 215//165
f 215//166 154//166 44//166 79//166
f 152//167 215//167 79//167 43//167
f 48//168 155//168 216//168 154//168
f 155//169 45//169 148//169 216//169
f 216//170 148//170 41//170 81//170
f 154//171 216//171 81//171 44//171
f 13//172 103//172 217//172 156//172
f 103//173 14//173 157//173 217//173
f 217//174 157//174 46//174 149//174
f 156//175 217//175 149//175 45//175
f 14//176 102//176 218//176 157//176
f 102//177 15//177 158//177 218//177
f 218//178 158//178 47//178 151//178
f 157//179 218//179 151//179 46//179
f 15//180 101//180 219//180 158//180
f 101//181 16//181 159//181 219//181
f 219//182 159//182 48//182 153//182
f 158//183 219//183 153//183 47//183
f 16//184 100//184 220//184 159//184
f 100//185 13//185 156//185 220//185
f 220//186 156//186 45//186 155//186
f 159//187 220//187 155//187 48//187
f 52//188 161//188 221//188 160//188
f 161//189 53//189 162//189 221//189
f 221//190 162//190 50//190 97//190
f 160//191 221//191 97//191 56//191
f 53//192 163//192 222//192 162//192
f 163//193 54//193 164//193 222//193
f 222//194 164//194 57//194 98//194
f 162//195 222//195 98//195 50//195
f 54//196 165//196 223//196 164//196
f 165//197 55//197 166//197 223//197
f 223//198 166//198 58//198 99//198
f 164//199 223//199 99//199 57//199
f 55//200 167//200 224//200 166//200
f 167//201 52//201 160//201 224//201
f 224//202 160//202 56//202 96//202
f 166//203 224//203 96//203 58//203
f 17//204 107//204 225//204 168//204
f 107//205 18//205 169//205 225//205
f 225//206 169//206 53//206 161//206
f 168//207 225//207 161//207 52//207
f 18//208 106//208 226//208 169//208
f 106//209 19//209 170//209 226//209
f 226//210 170//210 54//210 163//210
f 169//211 226//211 163//211 53//211
f 19//212 105//212 227//212 170//212
f 105//213 20//213 171//213 227//213
f 227//214 171//214 55//214 165//214
f 170//215 227//215 165//215 54//215
f 20//216 104//216 228//216 171//216
f 104//217 17//217 168//217 228//217
f 228//218 168//218 52//218 167//218
f 171//219 228//219 167//219 55//219
